<svg xmlns="http://www.w3.org/2000/svg"><defs><font id="clarabridge-icons" horiz-adv-x="557.143"><font-face font-family="clarabridge-icons" units-per-em="100" ascent="86" descent="14"/><glyph glyph-name="accessdenied" unicode="" horiz-adv-x="100" d="M50 .287a35.563 35.563 0 0 0-19.731 5.894L79.73 55.644c3.75-5.625 5.894-12.413 5.894-19.644A35.569 35.569 0 0 0 50 .288M14.288 36c0 9.556 3.75 18.481 10.443 25.269A35.375 35.375 0 0 0 50 71.713a36.063 36.063 0 0 0 19.644-5.894L20.18 16.356A35.063 35.063 0 0 0 14.287 36M50 86a49.563 49.563 0 0 1-35.356-14.644A49.563 49.563 0 0 1 0 36 49.563 49.563 0 0 1 14.644.644 49.563 49.563 0 0 1 50-14c27.588 0 50 22.413 50 50S77.588 86 50 86"/><glyph glyph-name="accessdenied-1" unicode="accessdenied" horiz-adv-x="100" d="M50 .287a35.563 35.563 0 0 0-19.731 5.894L79.73 55.644c3.75-5.625 5.894-12.413 5.894-19.644A35.569 35.569 0 0 0 50 .288M14.288 36c0 9.556 3.75 18.481 10.443 25.269A35.375 35.375 0 0 0 50 71.713a36.063 36.063 0 0 0 19.644-5.894L20.18 16.356A35.063 35.063 0 0 0 14.287 36M50 86a49.563 49.563 0 0 1-35.356-14.644A49.563 49.563 0 0 1 0 36 49.563 49.563 0 0 1 14.644.644 49.563 49.563 0 0 1 50-14c27.588 0 50 22.413 50 50S77.588 86 50 86"/><glyph glyph-name="add-2" unicode="" horiz-adv-x="100" d="M50 86c27.588 0 50-22.413 50-50S77.588-14 50-14A49.563 49.563 0 0 0 14.644.644 49.563 49.563 0 0 0 0 36a49.563 49.563 0 0 0 14.644 35.356A49.563 49.563 0 0 0 50 86zm0-14.287a35.375 35.375 0 0 1-25.269-10.444A35.75 35.75 0 0 1 14.287 36a35.375 35.375 0 0 1 10.444-25.269A35.75 35.75 0 0 1 50 .287 35.706 35.706 0 0 1 85.713 36 35.706 35.706 0 0 1 50 71.713zm0-14.275a3.677 3.677 0 0 0 3.663-3.67v-14.1h14.1a3.677 3.677 0 0 0 3.668-3.662 3.675 3.675 0 0 0-3.668-3.662h-14.1v-14.1A3.675 3.675 0 0 0 50 14.563a3.675 3.675 0 0 0-3.663 3.668v14.106h-14.1A3.675 3.675 0 0 0 28.562 36a3.677 3.677 0 0 0 3.67 3.663h14.1v14.1a3.677 3.677 0 0 0 3.662 3.668z"/><glyph glyph-name="add-2-1" unicode="add-2" horiz-adv-x="100" d="M50 86c27.588 0 50-22.413 50-50S77.588-14 50-14A49.563 49.563 0 0 0 14.644.644 49.563 49.563 0 0 0 0 36a49.563 49.563 0 0 0 14.644 35.356A49.563 49.563 0 0 0 50 86zm0-14.287a35.375 35.375 0 0 1-25.269-10.444A35.75 35.75 0 0 1 14.287 36a35.375 35.375 0 0 1 10.444-25.269A35.75 35.75 0 0 1 50 .287 35.706 35.706 0 0 1 85.713 36 35.706 35.706 0 0 1 50 71.713zm0-14.275a3.677 3.677 0 0 0 3.663-3.67v-14.1h14.1a3.677 3.677 0 0 0 3.668-3.662 3.675 3.675 0 0 0-3.668-3.662h-14.1v-14.1A3.675 3.675 0 0 0 50 14.563a3.675 3.675 0 0 0-3.663 3.668v14.106h-14.1A3.675 3.675 0 0 0 28.562 36a3.677 3.677 0 0 0 3.67 3.663h14.1v14.1a3.677 3.677 0 0 0 3.662 3.668z"/><glyph glyph-name="add-3" unicode="" horiz-adv-x="100" d="M89.287 46.712H60.712v28.575A10.75 10.75 0 0 1 50 86a10.75 10.75 0 0 1-10.712-10.713V46.712H10.713A10.75 10.75 0 0 1 0 36a10.75 10.75 0 0 1 10.713-10.712h28.575V-3.288A10.75 10.75 0 0 1 50-14 10.75 10.75 0 0 1 60.712-3.287v28.575h28.575A10.75 10.75 0 0 1 100 36a10.75 10.75 0 0 1-10.713 10.712"/><glyph glyph-name="add-3-1" unicode="add-3" horiz-adv-x="100" d="M89.287 46.712H60.712v28.575A10.75 10.75 0 0 1 50 86a10.75 10.75 0 0 1-10.712-10.713V46.712H10.713A10.75 10.75 0 0 1 0 36a10.75 10.75 0 0 1 10.713-10.712h28.575V-3.288A10.75 10.75 0 0 1 50-14 10.75 10.75 0 0 1 60.712-3.287v28.575h28.575A10.75 10.75 0 0 1 100 36a10.75 10.75 0 0 1-10.713 10.712"/><glyph glyph-name="add" unicode="" horiz-adv-x="100" d="M69.725 32.506H53.494V16.275A3.5 3.5 0 0 0 50 12.788a3.5 3.5 0 0 0-3.494 3.487v16.231H30.275A3.5 3.5 0 0 0 26.788 36a3.5 3.5 0 0 0 3.487 3.494h16.231v16.231A3.5 3.5 0 0 0 50 59.212a3.5 3.5 0 0 0 3.494-3.487V39.494h16.231A3.5 3.5 0 0 0 73.213 36a3.5 3.5 0 0 0-3.488-3.494m15.619 38.838a49.938 49.938 0 0 1-70.688 0 49.938 49.938 0 0 1 0-70.688 49.938 49.938 0 0 1 70.688 0 49.938 49.938 0 0 1 0 70.688"/><glyph glyph-name="add-1" unicode="add" horiz-adv-x="100" d="M69.725 32.506H53.494V16.275A3.5 3.5 0 0 0 50 12.788a3.5 3.5 0 0 0-3.494 3.487v16.231H30.275A3.5 3.5 0 0 0 26.788 36a3.5 3.5 0 0 0 3.487 3.494h16.231v16.231A3.5 3.5 0 0 0 50 59.212a3.5 3.5 0 0 0 3.494-3.487V39.494h16.231A3.5 3.5 0 0 0 73.213 36a3.5 3.5 0 0 0-3.488-3.494m15.619 38.838a49.938 49.938 0 0 1-70.688 0 49.938 49.938 0 0 1 0-70.688 49.938 49.938 0 0 1 70.688 0 49.938 49.938 0 0 1 0 70.688"/><glyph glyph-name="alarm" unicode="" horiz-adv-x="100" d="M50 80.644c24.644 0 44.644-20 44.644-44.644A44.181 44.181 0 0 0 80.269 3.319l4.743-8.3A6.144 6.144 0 0 0 79.475-14a6.188 6.188 0 0 0-5.625 3.481L70-3.812c-6.069-3.126-12.856-4.825-20.087-4.825a44.744 44.744 0 0 0-20.094 4.825l-3.725-6.7a6.281 6.281 0 0 0-5.625-3.482 6.244 6.244 0 0 0-2.769.625 6.3 6.3 0 0 0-2.769 8.394l4.625 8.3A44.656 44.656 0 0 0 50 80.638zM50 61a3.581 3.581 0 0 1-3.569-3.569V36c0-1.337.713-2.587 1.963-3.212l14.287-7.144a3.5 3.5 0 0 1 1.606-.356 3.581 3.581 0 0 1 1.607 6.787l-12.332 6.15v19.212A3.581 3.581 0 0 1 50 61zm32.144 25A17.913 17.913 0 0 0 100 68.144c0-4.463-1.694-8.575-4.375-11.7a50.144 50.144 0 0 1-25.181 25.181C73.569 84.306 77.68 86 82.144 86zm-64.288 0c4.463 0 8.581-1.694 11.706-4.375A50.144 50.144 0 0 1 4.375 56.444C1.694 59.569 0 63.687 0 68.144A17.913 17.913 0 0 0 17.856 86z"/><glyph glyph-name="alarm-1" unicode="alarm" horiz-adv-x="100" d="M50 80.644c24.644 0 44.644-20 44.644-44.644A44.181 44.181 0 0 0 80.269 3.319l4.743-8.3A6.144 6.144 0 0 0 79.475-14a6.188 6.188 0 0 0-5.625 3.481L70-3.812c-6.069-3.126-12.856-4.825-20.087-4.825a44.744 44.744 0 0 0-20.094 4.825l-3.725-6.7a6.281 6.281 0 0 0-5.625-3.482 6.244 6.244 0 0 0-2.769.625 6.3 6.3 0 0 0-2.769 8.394l4.625 8.3A44.656 44.656 0 0 0 50 80.638zM50 61a3.581 3.581 0 0 1-3.569-3.569V36c0-1.337.713-2.587 1.963-3.212l14.287-7.144a3.5 3.5 0 0 1 1.606-.356 3.581 3.581 0 0 1 1.607 6.787l-12.332 6.15v19.212A3.581 3.581 0 0 1 50 61zm32.144 25A17.913 17.913 0 0 0 100 68.144c0-4.463-1.694-8.575-4.375-11.7a50.144 50.144 0 0 1-25.181 25.181C73.569 84.306 77.68 86 82.144 86zm-64.288 0c4.463 0 8.581-1.694 11.706-4.375A50.144 50.144 0 0 1 4.375 56.444C1.694 59.569 0 63.687 0 68.144A17.913 17.913 0 0 0 17.856 86z"/><glyph glyph-name="align-center" unicode="" horiz-adv-x="100" d="M82.144 14.569c3.925 0 7.143-3.213 7.143-7.138 0-3.931-3.218-7.144-7.143-7.144H17.856a7.162 7.162 0 0 0-7.144 7.144c0 3.925 3.22 7.138 7.144 7.138zM71.43 43.144c3.925 0 7.138-3.213 7.138-7.144s-3.213-7.144-7.138-7.144H28.563A7.162 7.162 0 0 0 21.438 36c0 3.931 3.212 7.144 7.137 7.144zm21.425 28.569c3.931 0 7.144-3.213 7.144-7.144 0-3.925-3.213-7.138-7.144-7.138H7.144A7.162 7.162 0 0 0 0 64.563c0 3.937 3.212 7.15 7.144 7.15z"/><glyph glyph-name="align-center-1" unicode="align-center" horiz-adv-x="100" d="M82.144 14.569c3.925 0 7.143-3.213 7.143-7.138 0-3.931-3.218-7.144-7.143-7.144H17.856a7.162 7.162 0 0 0-7.144 7.144c0 3.925 3.22 7.138 7.144 7.138zM71.43 43.144c3.925 0 7.138-3.213 7.138-7.144s-3.213-7.144-7.138-7.144H28.563A7.162 7.162 0 0 0 21.438 36c0 3.931 3.212 7.144 7.137 7.144zm21.425 28.569c3.931 0 7.144-3.213 7.144-7.144 0-3.925-3.213-7.138-7.144-7.138H7.144A7.162 7.162 0 0 0 0 64.563c0 3.937 3.212 7.15 7.144 7.15z"/><glyph glyph-name="align-image-bottom" unicode="" horiz-adv-x="100" d="M92.856 7.431c3.931 0 7.144-3.218 7.144-7.144 0-3.93-3.213-7.143-7.144-7.143H7.144A7.162 7.162 0 0 0 0 .287c0 3.926 3.212 7.144 7.144 7.144zM50 78.856a21.431 21.431 0 0 0 21.431-21.425V36a21.431 21.431 0 1 0-42.868 0v21.431A21.431 21.431 0 0 0 50 78.856z"/><glyph glyph-name="align-image-bottom-1" unicode="align-image-bottom" horiz-adv-x="100" d="M92.856 7.431c3.931 0 7.144-3.218 7.144-7.144 0-3.93-3.213-7.143-7.144-7.143H7.144A7.162 7.162 0 0 0 0 .287c0 3.926 3.212 7.144 7.144 7.144zM50 78.856a21.431 21.431 0 0 0 21.431-21.425V36a21.431 21.431 0 1 0-42.868 0v21.431A21.431 21.431 0 0 0 50 78.856z"/><glyph glyph-name="align-image-center" unicode="" horiz-adv-x="100" d="M50 86c3.931 0 7.144-3.213 7.144-7.144V57.438h3.569a21.431 21.431 0 0 0 0-42.863l-3.575.006V-6.856c0-3.663-2.794-6.707-6.363-7.094L50-14a7.162 7.162 0 0 0-7.144 7.144v21.431h-3.569a21.431 21.431 0 1 0 0 42.856h3.563l.006 21.425c0 3.669 2.8 6.713 6.369 7.1z"/><glyph glyph-name="align-image-center-1" unicode="align-image-center" horiz-adv-x="100" d="M50 86c3.931 0 7.144-3.213 7.144-7.144V57.438h3.569a21.431 21.431 0 0 0 0-42.863l-3.575.006V-6.856c0-3.663-2.794-6.707-6.363-7.094L50-14a7.162 7.162 0 0 0-7.144 7.144v21.431h-3.569a21.431 21.431 0 1 0 0 42.856h3.563l.006 21.425c0 3.669 2.8 6.713 6.369 7.1z"/><glyph glyph-name="align-image-left" unicode="" horiz-adv-x="100" d="M14.287 86c3.925 0 7.144-3.213 7.144-7.144V-6.856c0-3.931-3.219-7.144-7.144-7.144a7.162 7.162 0 0 0-7.143 7.144v85.712c0 3.931 3.212 7.144 7.143 7.144zm57.144-28.569a21.431 21.431 0 0 0 0-42.862H50a21.431 21.431 0 1 0 0 42.868h21.431z"/><glyph glyph-name="align-image-left-1" unicode="align-image-left" horiz-adv-x="100" d="M14.287 86c3.925 0 7.144-3.213 7.144-7.144V-6.856c0-3.931-3.219-7.144-7.144-7.144a7.162 7.162 0 0 0-7.143 7.144v85.712c0 3.931 3.212 7.144 7.143 7.144zm57.144-28.569a21.431 21.431 0 0 0 0-42.862H50a21.431 21.431 0 1 0 0 42.868h21.431z"/><glyph glyph-name="align-image-middle" unicode="" horiz-adv-x="100" d="M50 68.144a21.431 21.431 0 0 0 21.431-21.432l-.006-3.568h21.438c3.662 0 6.706-2.8 7.093-6.369L100 36c0-3.931-3.213-7.144-7.144-7.144H71.425v-3.569a21.431 21.431 0 1 0-42.856 0v3.576H7.144a7.169 7.169 0 0 0-7.1 6.356L0 36c0 3.931 3.212 7.144 7.144 7.144h21.418v3.569A21.431 21.431 0 0 0 50 68.142z"/><glyph glyph-name="align-image-middle-1" unicode="align-image-middle" horiz-adv-x="100" d="M50 68.144a21.431 21.431 0 0 0 21.431-21.432l-.006-3.568h21.438c3.662 0 6.706-2.8 7.093-6.369L100 36c0-3.931-3.213-7.144-7.144-7.144H71.425v-3.569a21.431 21.431 0 1 0-42.856 0v3.576H7.144a7.169 7.169 0 0 0-7.1 6.356L0 36c0 3.931 3.212 7.144 7.144 7.144h21.418v3.569A21.431 21.431 0 0 0 50 68.142z"/><glyph glyph-name="align-image-right" unicode="" horiz-adv-x="100" d="M85.713 86c3.93 0 7.143-3.213 7.143-7.144V-6.856c0-3.931-3.212-7.144-7.143-7.144a7.162 7.162 0 0 0-7.144 7.144v85.712c0 3.931 3.218 7.144 7.144 7.144zM50 57.431a21.431 21.431 0 0 0 0-42.862H28.569a21.431 21.431 0 1 0 0 42.862H50z"/><glyph glyph-name="align-image-right-1" unicode="align-image-right" horiz-adv-x="100" d="M85.713 86c3.93 0 7.143-3.213 7.143-7.144V-6.856c0-3.931-3.212-7.144-7.143-7.144a7.162 7.162 0 0 0-7.144 7.144v85.712c0 3.931 3.218 7.144 7.144 7.144zM50 57.431a21.431 21.431 0 0 0 0-42.862H28.569a21.431 21.431 0 1 0 0 42.862H50z"/><glyph glyph-name="align-image-top" unicode="" horiz-adv-x="100" d="M50 57.431A21.431 21.431 0 0 0 71.431 36V14.569a21.431 21.431 0 1 0-42.862 0V36A21.431 21.431 0 0 0 50 57.431zm42.856 21.425c3.931 0 7.144-3.212 7.144-7.143 0-3.925-3.213-7.144-7.144-7.144H7.144A7.162 7.162 0 0 0 0 71.713c0 3.93 3.212 7.143 7.144 7.143z"/><glyph glyph-name="align-image-top-1" unicode="align-image-top" horiz-adv-x="100" d="M50 57.431A21.431 21.431 0 0 0 71.431 36V14.569a21.431 21.431 0 1 0-42.862 0V36A21.431 21.431 0 0 0 50 57.431zm42.856 21.425c3.931 0 7.144-3.212 7.144-7.143 0-3.925-3.213-7.144-7.144-7.144H7.144A7.162 7.162 0 0 0 0 71.713c0 3.93 3.212 7.143 7.144 7.143z"/><glyph glyph-name="align-justify" unicode="" horiz-adv-x="100" d="M92.856 14.569c3.931 0 7.144-3.213 7.144-7.138C100 3.5 96.787.287 92.856.287H7.144A7.162 7.162 0 0 0 0 7.431c0 3.925 3.212 7.138 7.144 7.138zm.013 28.575C96.794 43.144 100 39.93 100 36s-3.206-7.144-7.131-7.144H7.144A7.162 7.162 0 0 0 0 36c0 3.931 3.212 7.144 7.144 7.144zm-.013 28.569c3.931 0 7.144-3.213 7.144-7.144 0-3.925-3.213-7.138-7.144-7.138H7.144A7.162 7.162 0 0 0 0 64.563c0 3.937 3.212 7.15 7.144 7.15z"/><glyph glyph-name="align-justify-1" unicode="align-justify" horiz-adv-x="100" d="M92.856 14.569c3.931 0 7.144-3.213 7.144-7.138C100 3.5 96.787.287 92.856.287H7.144A7.162 7.162 0 0 0 0 7.431c0 3.925 3.212 7.138 7.144 7.138zm.013 28.575C96.794 43.144 100 39.93 100 36s-3.206-7.144-7.131-7.144H7.144A7.162 7.162 0 0 0 0 36c0 3.931 3.212 7.144 7.144 7.144zm-.013 28.569c3.931 0 7.144-3.213 7.144-7.144 0-3.925-3.213-7.138-7.144-7.138H7.144A7.162 7.162 0 0 0 0 64.563c0 3.937 3.212 7.15 7.144 7.15z"/><glyph glyph-name="align-left" unicode="" horiz-adv-x="100" d="M71.431 14.569c3.925 0 7.138-3.213 7.138-7.138 0-3.931-3.213-7.144-7.138-7.144H7.144A7.162 7.162 0 0 0 0 7.431c0 3.925 3.212 7.138 7.144 7.138zM50 43.144c3.931 0 7.144-3.213 7.144-7.144S53.93 28.856 50 28.856H7.144A7.162 7.162 0 0 0 0 36c0 3.931 3.212 7.144 7.144 7.144zm42.856 28.569c3.931 0 7.144-3.213 7.144-7.144 0-3.925-3.213-7.138-7.144-7.138H7.144A7.162 7.162 0 0 0 0 64.563c0 3.937 3.212 7.15 7.144 7.15z"/><glyph glyph-name="align-left-1" unicode="align-left" horiz-adv-x="100" d="M71.431 14.569c3.925 0 7.138-3.213 7.138-7.138 0-3.931-3.213-7.144-7.138-7.144H7.144A7.162 7.162 0 0 0 0 7.431c0 3.925 3.212 7.138 7.144 7.138zM50 43.144c3.931 0 7.144-3.213 7.144-7.144S53.93 28.856 50 28.856H7.144A7.162 7.162 0 0 0 0 36c0 3.931 3.212 7.144 7.144 7.144zm42.856 28.569c3.931 0 7.144-3.213 7.144-7.144 0-3.925-3.213-7.138-7.144-7.138H7.144A7.162 7.162 0 0 0 0 64.563c0 3.937 3.212 7.15 7.144 7.15z"/><glyph glyph-name="align-right" unicode="" horiz-adv-x="100" d="M92.856 14.569c3.931 0 7.144-3.213 7.144-7.138C100 3.5 96.787.287 92.856.287H28.57a7.162 7.162 0 0 0-7.138 7.144c0 3.925 3.213 7.138 7.138 7.138zm0 28.575C96.787 43.144 100 39.93 100 36s-3.213-7.144-7.144-7.144H50A7.162 7.162 0 0 0 42.856 36c0 3.931 3.213 7.144 7.144 7.144zm0 28.569c3.931 0 7.144-3.213 7.144-7.144 0-3.925-3.213-7.138-7.144-7.138H7.144A7.162 7.162 0 0 0 0 64.563c0 3.937 3.212 7.15 7.144 7.15z"/><glyph glyph-name="align-right-1" unicode="align-right" horiz-adv-x="100" d="M92.856 14.569c3.931 0 7.144-3.213 7.144-7.138C100 3.5 96.787.287 92.856.287H28.57a7.162 7.162 0 0 0-7.138 7.144c0 3.925 3.213 7.138 7.138 7.138zm0 28.575C96.787 43.144 100 39.93 100 36s-3.213-7.144-7.144-7.144H50A7.162 7.162 0 0 0 42.856 36c0 3.931 3.213 7.144 7.144 7.144zm0 28.569c3.931 0 7.144-3.213 7.144-7.144 0-3.925-3.213-7.138-7.144-7.138H7.144A7.162 7.162 0 0 0 0 64.563c0 3.937 3.212 7.15 7.144 7.15z"/><glyph glyph-name="align-text-bottom" unicode="" horiz-adv-x="100" d="M71.431 28.856V17.25h-1.25c-.718 2.681-1.612 4.644-2.5 5.806a9.369 9.369 0 0 1-3.75 2.763c-.893.362-2.412.537-4.643.537h-3.575V-6.68c0-2.231.18-3.569.45-4.106.268-.532.8-.982 1.606-1.425.8-.45 1.875-.626 3.212-.626h1.606V-14h-25v1.162h1.607c1.343 0 2.5.175 3.306.625a2.975 2.975 0 0 1 1.431 1.52c.263.53.357 1.874.357 4.012v33.037h-3.482c-3.218 0-5.537-.625-6.968-1.875-2.05-1.694-3.3-4.194-3.925-7.231h-1.35v11.606h42.862zm25 57.144C98.4 86 100 84.4 100 82.431v-92.868a3.569 3.569 0 0 0-7.144 0v92.874c0 1.97 1.6 3.57 3.575 3.57zM3.563 86c1.974 0 3.575-1.6 3.575-3.569v-92.868a3.569 3.569 0 1 0-7.144 0v92.874A3.58 3.58 0 0 0 3.569 86z"/><glyph glyph-name="align-text-bottom-1" unicode="align-text-bottom" horiz-adv-x="100" d="M71.431 28.856V17.25h-1.25c-.718 2.681-1.612 4.644-2.5 5.806a9.369 9.369 0 0 1-3.75 2.763c-.893.362-2.412.537-4.643.537h-3.575V-6.68c0-2.231.18-3.569.45-4.106.268-.532.8-.982 1.606-1.425.8-.45 1.875-.626 3.212-.626h1.606V-14h-25v1.162h1.607c1.343 0 2.5.175 3.306.625a2.975 2.975 0 0 1 1.431 1.52c.263.53.357 1.874.357 4.012v33.037h-3.482c-3.218 0-5.537-.625-6.968-1.875-2.05-1.694-3.3-4.194-3.925-7.231h-1.35v11.606h42.862zm25 57.144C98.4 86 100 84.4 100 82.431v-92.868a3.569 3.569 0 0 0-7.144 0v92.874c0 1.97 1.6 3.57 3.575 3.57zM3.563 86c1.974 0 3.575-1.6 3.575-3.569v-92.868a3.569 3.569 0 1 0-7.144 0v92.874A3.58 3.58 0 0 0 3.569 86z"/><glyph glyph-name="align-text-left" unicode="" horiz-adv-x="100" d="M96.431-6.856a3.569 3.569 0 1 0 0-7.144H3.563a3.569 3.569 0 0 0 0 7.144h92.874zM42.856 57.43V45.813h-1.25c-.712 2.687-1.606 4.65-2.5 5.812a9.369 9.369 0 0 1-3.75 2.769c-.894.356-2.412.537-4.644.537h-3.568V21.894c0-2.231.175-3.575.444-4.106.268-.538.806-.982 1.606-1.432.806-.444 1.875-.625 3.219-.625h1.606V14.57h-25v1.162h1.606c1.338 0 2.5.181 3.306.625a2.975 2.975 0 0 1 1.425 1.519c.269.538.357 1.875.357 4.019V54.93H12.23c-3.212 0-5.537-.625-6.962-1.875-2.057-1.7-3.307-4.2-3.932-7.237H0v11.618h42.856zM96.437 86a3.569 3.569 0 1 0 0-7.144H3.564A3.569 3.569 0 1 0 3.568 86h92.869z"/><glyph glyph-name="align-text-left-1" unicode="align-text-left" horiz-adv-x="100" d="M96.431-6.856a3.569 3.569 0 1 0 0-7.144H3.563a3.569 3.569 0 0 0 0 7.144h92.874zM42.856 57.43V45.813h-1.25c-.712 2.687-1.606 4.65-2.5 5.812a9.369 9.369 0 0 1-3.75 2.769c-.894.356-2.412.537-4.644.537h-3.568V21.894c0-2.231.175-3.575.444-4.106.268-.538.806-.982 1.606-1.432.806-.444 1.875-.625 3.219-.625h1.606V14.57h-25v1.162h1.606c1.338 0 2.5.181 3.306.625a2.975 2.975 0 0 1 1.425 1.519c.269.538.357 1.875.357 4.019V54.93H12.23c-3.212 0-5.537-.625-6.962-1.875-2.057-1.7-3.307-4.2-3.932-7.237H0v11.618h42.856zM96.437 86a3.569 3.569 0 1 0 0-7.144H3.564A3.569 3.569 0 1 0 3.568 86h92.869z"/><glyph glyph-name="align-text-right" unicode="" horiz-adv-x="100" d="M96.431-6.856a3.569 3.569 0 1 0 0-7.144H3.563a3.569 3.569 0 0 0 0 7.144h92.874zM100 57.43V45.813h-1.25c-.713 2.68-1.606 4.643-2.5 5.806a9.369 9.369 0 0 1-3.75 2.769c-.894.356-2.412.537-4.644.537h-3.569V21.888c0-2.232.175-3.576.444-4.107.269-.537.806-.981 1.607-1.431.806-.444 1.875-.625 3.218-.625h1.606v-1.162h-25v1.162h1.607c1.337 0 2.5.181 3.3.625a2.975 2.975 0 0 1 1.431 1.519c.269.537.356 1.875.356 4.018v33.044h-3.481c-3.213 0-5.538-.625-6.962-1.875-2.057-1.7-3.307-4.2-3.932-7.237h-1.337v11.618H100zM96.431 86a3.569 3.569 0 1 0 0-7.144H3.563A3.569 3.569 0 1 0 3.568 86h92.869z"/><glyph glyph-name="align-text-right-1" unicode="align-text-right" horiz-adv-x="100" d="M96.431-6.856a3.569 3.569 0 1 0 0-7.144H3.563a3.569 3.569 0 0 0 0 7.144h92.874zM100 57.43V45.813h-1.25c-.713 2.68-1.606 4.643-2.5 5.806a9.369 9.369 0 0 1-3.75 2.769c-.894.356-2.412.537-4.644.537h-3.569V21.888c0-2.232.175-3.576.444-4.107.269-.537.806-.981 1.607-1.431.806-.444 1.875-.625 3.218-.625h1.606v-1.162h-25v1.162h1.607c1.337 0 2.5.181 3.3.625a2.975 2.975 0 0 1 1.431 1.519c.269.537.356 1.875.356 4.018v33.044h-3.481c-3.213 0-5.538-.625-6.962-1.875-2.057-1.7-3.307-4.2-3.932-7.237h-1.337v11.618H100zM96.431 86a3.569 3.569 0 1 0 0-7.144H3.563A3.569 3.569 0 1 0 3.568 86h92.869z"/><glyph glyph-name="align-text-top" unicode="" horiz-adv-x="100" d="M96.431 86C98.4 86 100 84.4 100 82.431v-92.868a3.569 3.569 0 0 0-7.144 0v92.874c0 1.97 1.6 3.57 3.575 3.57zM3.563 86c1.974 0 3.575-1.6 3.575-3.569v-92.868a3.569 3.569 0 1 0-7.144 0v92.874A3.58 3.58 0 0 0 3.569 86zm67.874 0V74.394h-1.25c-.718 2.675-1.612 4.643-2.5 5.8a9.369 9.369 0 0 1-3.75 2.769c-.9.356-2.418.537-4.65.537h-3.575V50.462c0-2.23.182-3.568.45-4.106.27-.537.8-.981 1.607-1.425.8-.45 1.875-.625 3.212-.625h1.606v-1.162h-25v1.162h1.607c1.343 0 2.5.175 3.306.625a2.975 2.975 0 0 1 1.431 1.513c.263.537.357 1.875.357 4.018V83.5h-3.482c-3.218 0-5.537-.625-6.968-1.875-2.05-1.694-3.3-4.194-3.925-7.231h-1.35V86h42.862z"/><glyph glyph-name="align-text-top-1" unicode="align-text-top" horiz-adv-x="100" d="M96.431 86C98.4 86 100 84.4 100 82.431v-92.868a3.569 3.569 0 0 0-7.144 0v92.874c0 1.97 1.6 3.57 3.575 3.57zM3.563 86c1.974 0 3.575-1.6 3.575-3.569v-92.868a3.569 3.569 0 1 0-7.144 0v92.874A3.58 3.58 0 0 0 3.569 86zm67.874 0V74.394h-1.25c-.718 2.675-1.612 4.643-2.5 5.8a9.369 9.369 0 0 1-3.75 2.769c-.9.356-2.418.537-4.65.537h-3.575V50.462c0-2.23.182-3.568.45-4.106.27-.537.8-.981 1.607-1.425.8-.45 1.875-.625 3.212-.625h1.606v-1.162h-25v1.162h1.607c1.343 0 2.5.175 3.306.625a2.975 2.975 0 0 1 1.431 1.513c.263.537.357 1.875.357 4.018V83.5h-3.482c-3.218 0-5.537-.625-6.968-1.875-2.05-1.694-3.3-4.194-3.925-7.231h-1.35V86h42.862z"/><glyph glyph-name="android" unicode="" horiz-adv-x="100" d="M75.519 48.5l-.107-36.619c0-3.431-2.868-6.237-6.368-6.237h-.819V-7.45c0-3.362-2.5-6.156-5.687-6.513L61.85-14c-3.513 0-6.381 2.944-6.381 6.55l-.007 13.094h-10.93V-7.45c0-3.362-2.5-6.156-5.688-6.513L38.156-14c-3.512 0-6.387 2.944-6.387 6.55V5.644h-.925c-3.269 0-5.982 2.444-6.325 5.562l-.038.675.106 36.619h50.938zm11.85 0c3.512 0 6.381-2.944 6.381-6.55V15.762c0-3.6-2.875-6.55-6.375-6.55-3.513 0-6.388 2.95-6.388 6.55V41.95c0 3.606 2.876 6.55 6.382 6.55zm-74.738 0c3.506 0 6.375-2.944 6.375-6.55V15.762c0-3.6-2.869-6.55-6.375-6.55-3.512 0-6.381 2.95-6.381 6.55V41.95c0 3.612 2.875 6.55 6.375 6.55zm17.113 37.206a2.263 2.263 0 0 0 3.187-1.069l3.913-8.15a25.313 25.313 0 0 0 13.075 3.707c4.787 0 9.25-1.313 13.081-3.707l3.906 8.15a2.394 2.394 0 0 0 3.188 1.07c1.125-.576 1.6-2.057 1.044-3.294l-4.313-8.888a27.369 27.369 0 0 0 8.694-19.669H24.48a26.625 26.625 0 0 0 8.532 19.669l-4.307 8.887a2.406 2.406 0 0 0 1.038 3.294zm31.194-15.769a3.625 3.625 0 0 1-3.644-3.575 3.625 3.625 0 0 1 3.644-3.568 3.625 3.625 0 0 1 3.643 3.569 3.625 3.625 0 0 1-3.644 3.575zm-21.876 0a3.625 3.625 0 0 1-3.643-3.575 3.625 3.625 0 0 1 3.644-3.568 3.625 3.625 0 0 1 3.643 3.569 3.625 3.625 0 0 1-3.644 3.575z"/><glyph glyph-name="android-1" unicode="android" horiz-adv-x="100" d="M75.519 48.5l-.107-36.619c0-3.431-2.868-6.237-6.368-6.237h-.819V-7.45c0-3.362-2.5-6.156-5.687-6.513L61.85-14c-3.513 0-6.381 2.944-6.381 6.55l-.007 13.094h-10.93V-7.45c0-3.362-2.5-6.156-5.688-6.513L38.156-14c-3.512 0-6.387 2.944-6.387 6.55V5.644h-.925c-3.269 0-5.982 2.444-6.325 5.562l-.038.675.106 36.619h50.938zm11.85 0c3.512 0 6.381-2.944 6.381-6.55V15.762c0-3.6-2.875-6.55-6.375-6.55-3.513 0-6.388 2.95-6.388 6.55V41.95c0 3.606 2.876 6.55 6.382 6.55zm-74.738 0c3.506 0 6.375-2.944 6.375-6.55V15.762c0-3.6-2.869-6.55-6.375-6.55-3.512 0-6.381 2.95-6.381 6.55V41.95c0 3.612 2.875 6.55 6.375 6.55zm17.113 37.206a2.263 2.263 0 0 0 3.187-1.069l3.913-8.15a25.313 25.313 0 0 0 13.075 3.707c4.787 0 9.25-1.313 13.081-3.707l3.906 8.15a2.394 2.394 0 0 0 3.188 1.07c1.125-.576 1.6-2.057 1.044-3.294l-4.313-8.888a27.369 27.369 0 0 0 8.694-19.669H24.48a26.625 26.625 0 0 0 8.532 19.669l-4.307 8.887a2.406 2.406 0 0 0 1.038 3.294zm31.194-15.769a3.625 3.625 0 0 1-3.644-3.575 3.625 3.625 0 0 1 3.644-3.568 3.625 3.625 0 0 1 3.643 3.569 3.625 3.625 0 0 1-3.644 3.575zm-21.876 0a3.625 3.625 0 0 1-3.643-3.575 3.625 3.625 0 0 1 3.644-3.568 3.625 3.625 0 0 1 3.643 3.569 3.625 3.625 0 0 1-3.644 3.575z"/><glyph glyph-name="angle-bottom" unicode="" horiz-adv-x="100" d="M50 4.75a12.875 12.875 0 0 0-9.294 3.875l-37.5 39.063c-4.618 4.812-4.2 12.224.938 16.556 5.125 4.325 13.031 3.937 17.65-.875L50 33.987 78.206 63.37c4.625 4.812 12.525 5.2 17.656.875 5.126-4.331 5.55-11.744.932-16.55L59.294 8.63C56.919 6.156 53.544 4.75 50 4.75"/><glyph glyph-name="angle-bottom-1" unicode="angle-bottom" horiz-adv-x="100" d="M50 4.75a12.875 12.875 0 0 0-9.294 3.875l-37.5 39.063c-4.618 4.812-4.2 12.224.938 16.556 5.125 4.325 13.031 3.937 17.65-.875L50 33.987 78.206 63.37c4.625 4.812 12.525 5.2 17.656.875 5.126-4.331 5.55-11.744.932-16.55L59.294 8.63C56.919 6.156 53.544 4.75 50 4.75"/><glyph glyph-name="angle-left" unicode="" horiz-adv-x="100" d="M18.75 36c0 3.544 1.406 6.919 3.875 9.294l39.063 37.5c4.812 4.618 12.224 4.2 16.556-.938 4.325-5.125 3.937-13.031-.875-17.65L47.987 36 77.37 7.794c4.812-4.625 5.2-12.525.875-17.657-4.332-5.125-11.744-5.55-16.55-.93l-39.063 37.5A12.875 12.875 0 0 0 18.75 36"/><glyph glyph-name="angle-left-1" unicode="angle-left" horiz-adv-x="100" d="M18.75 36c0 3.544 1.406 6.919 3.875 9.294l39.063 37.5c4.812 4.618 12.224 4.2 16.556-.938 4.325-5.125 3.937-13.031-.875-17.65L47.987 36 77.37 7.794c4.812-4.625 5.2-12.525.875-17.657-4.332-5.125-11.744-5.55-16.55-.93l-39.063 37.5A12.875 12.875 0 0 0 18.75 36"/><glyph glyph-name="angle-right" unicode="" horiz-adv-x="100" d="M81.25 36a12.875 12.875 0 0 1-3.875 9.294l-39.063 37.5c-4.812 4.618-12.224 4.2-16.556-.938-4.325-5.125-3.937-13.031.875-17.65L52.013 36 22.63 7.794c-4.812-4.625-5.2-12.525-.875-17.657 4.331-5.125 11.744-5.55 16.55-.93l39.063 37.5c2.475 2.374 3.881 5.75 3.881 9.293"/><glyph glyph-name="angle-right-1" unicode="angle-right" horiz-adv-x="100" d="M81.25 36a12.875 12.875 0 0 1-3.875 9.294l-39.063 37.5c-4.812 4.618-12.224 4.2-16.556-.938-4.325-5.125-3.937-13.031.875-17.65L52.013 36 22.63 7.794c-4.812-4.625-5.2-12.525-.875-17.657 4.331-5.125 11.744-5.55 16.55-.93l39.063 37.5c2.475 2.374 3.881 5.75 3.881 9.293"/><glyph glyph-name="angle-top" unicode="" horiz-adv-x="100" d="M50 67.25a12.875 12.875 0 0 1-9.294-3.875l-37.5-39.063c-4.618-4.812-4.2-12.225.938-16.556 5.125-4.325 13.031-3.937 17.65.875L50 38.013 78.206 8.63c4.625-4.812 12.525-5.2 17.656-.875 5.126 4.332 5.55 11.744.932 16.55l-37.5 39.063A12.875 12.875 0 0 1 50 67.25"/><glyph glyph-name="angle-top-1" unicode="angle-top" horiz-adv-x="100" d="M50 67.25a12.875 12.875 0 0 1-9.294-3.875l-37.5-39.063c-4.618-4.812-4.2-12.225.938-16.556 5.125-4.325 13.031-3.937 17.65.875L50 38.013 78.206 8.63c4.625-4.812 12.525-5.2 17.656-.875 5.126 4.332 5.55 11.744.932 16.55l-37.5 39.063A12.875 12.875 0 0 1 50 67.25"/><glyph glyph-name="answer" unicode="" horiz-adv-x="100" d="M50 86c27.575 0 50-20.806 50-46.431S77.575-6.856 50-6.856a52.569 52.569 0 0 0-22.5 5L6.25-14l5.231 23.931C4.3 17.962 0 28.313 0 39.563 0 65.192 22.419 86 50 86zm0-42.856l-.781-.044a7.125 7.125 0 0 1-6.363-7.094v-14.3A7.125 7.125 0 0 1 50 14.57l.781.043a7.125 7.125 0 0 1 6.363 7.094v14.3A7.125 7.125 0 0 1 50 43.144zm0 21.419a7.113 7.113 0 0 1-7.144-7.138c0-3.969 3.175-7.144 7.144-7.144s7.144 3.175 7.144 7.144A7.113 7.113 0 0 1 50 64.563z"/><glyph glyph-name="answer-1" unicode="answer" horiz-adv-x="100" d="M50 86c27.575 0 50-20.806 50-46.431S77.575-6.856 50-6.856a52.569 52.569 0 0 0-22.5 5L6.25-14l5.231 23.931C4.3 17.962 0 28.313 0 39.563 0 65.192 22.419 86 50 86zm0-42.856l-.781-.044a7.125 7.125 0 0 1-6.363-7.094v-14.3A7.125 7.125 0 0 1 50 14.57l.781.043a7.125 7.125 0 0 1 6.363 7.094v14.3A7.125 7.125 0 0 1 50 43.144zm0 21.419a7.113 7.113 0 0 1-7.144-7.138c0-3.969 3.175-7.144 7.144-7.144s7.144 3.175 7.144 7.144A7.113 7.113 0 0 1 50 64.563z"/><glyph glyph-name="apple" unicode="" horiz-adv-x="100" d="M65.844 70c3.675 4.25 6.212 10.169 5.512 16-5.418-.169-11.981-3.331-15.831-7.581-3.5-3.75-6.563-9.75-5.688-15.5 6.038-.419 12.25 2.919 16.007 7.081m13.475-37.163c-.175 12.663 11.106 18.75 11.631 19-6.3 8.663-16.181 9.832-19.681 10-8.394.75-16.357-4.587-20.557-4.587-4.193 0-10.756 4.5-17.75 4.337a26.775 26.775 0 0 1-22.225-12.5c-9.443-15.33-2.443-38 6.825-50.412 4.55-6.087 9.888-12.919 16.97-12.669 6.824.25 9.362 4.082 17.58 4.082 8.225 0 10.5-4.082 17.757-4 7.35.168 11.987 6.168 16.444 12.25 5.162 7.087 7.35 13.83 7.437 14.25-.175.08-14.256 5.168-14.438 20.25"/><glyph glyph-name="apple-1" unicode="apple" horiz-adv-x="100" d="M65.844 70c3.675 4.25 6.212 10.169 5.512 16-5.418-.169-11.981-3.331-15.831-7.581-3.5-3.75-6.563-9.75-5.688-15.5 6.038-.419 12.25 2.919 16.007 7.081m13.475-37.163c-.175 12.663 11.106 18.75 11.631 19-6.3 8.663-16.181 9.832-19.681 10-8.394.75-16.357-4.587-20.557-4.587-4.193 0-10.756 4.5-17.75 4.337a26.775 26.775 0 0 1-22.225-12.5c-9.443-15.33-2.443-38 6.825-50.412 4.55-6.087 9.888-12.919 16.97-12.669 6.824.25 9.362 4.082 17.58 4.082 8.225 0 10.5-4.082 17.757-4 7.35.168 11.987 6.168 16.444 12.25 5.162 7.087 7.35 13.83 7.437 14.25-.175.08-14.256 5.168-14.438 20.25"/><glyph glyph-name="applebusinesschat" unicode="" horiz-adv-x="100" d="M65.844 70c3.675 4.25 6.212 10.169 5.512 16-5.418-.169-11.981-3.331-15.831-7.581-3.5-3.75-6.563-9.75-5.688-15.5 6.038-.419 12.25 2.919 16.007 7.081m13.475-37.163c-.175 12.663 11.106 18.75 11.631 19-6.3 8.663-16.181 9.832-19.681 10-8.394.75-16.357-4.587-20.557-4.587-4.193 0-10.756 4.5-17.75 4.337a26.775 26.775 0 0 1-22.225-12.5c-9.443-15.33-2.443-38 6.825-50.412 4.55-6.087 9.888-12.919 16.97-12.669 6.824.25 9.362 4.082 17.58 4.082 8.225 0 10.5-4.082 17.757-4 7.35.168 11.987 6.168 16.444 12.25 5.162 7.087 7.35 13.83 7.437 14.25-.175.08-14.256 5.168-14.438 20.25"/><glyph glyph-name="applebusinesschat-1" unicode="applebusinesschat" horiz-adv-x="100" d="M65.844 70c3.675 4.25 6.212 10.169 5.512 16-5.418-.169-11.981-3.331-15.831-7.581-3.5-3.75-6.563-9.75-5.688-15.5 6.038-.419 12.25 2.919 16.007 7.081m13.475-37.163c-.175 12.663 11.106 18.75 11.631 19-6.3 8.663-16.181 9.832-19.681 10-8.394.75-16.357-4.587-20.557-4.587-4.193 0-10.756 4.5-17.75 4.337a26.775 26.775 0 0 1-22.225-12.5c-9.443-15.33-2.443-38 6.825-50.412 4.55-6.087 9.888-12.919 16.97-12.669 6.824.25 9.362 4.082 17.58 4.082 8.225 0 10.5-4.082 17.757-4 7.35.168 11.987 6.168 16.444 12.25 5.162 7.087 7.35 13.83 7.437 14.25-.175.08-14.256 5.168-14.438 20.25"/><glyph glyph-name="array" unicode="" horiz-adv-x="100" d="M32.519-7.862A6.138 6.138 0 0 1 26.38-1.72h-7.237V73.72h7.231a6.138 6.138 0 0 1 0 12.281H9.812a6.25 6.25 0 0 1-6.25-6.25v-87.5A6.25 6.25 0 0 1 9.813-14h16.563a6.14 6.14 0 0 1 6.138 6.138zm64.35.112v87.5a6.25 6.25 0 0 1-6.25 6.25H74.056a6.138 6.138 0 1 1 0-12.281H81.3V-1.72h-7.237a6.138 6.138 0 1 1 0-12.281h16.556a6.25 6.25 0 0 1 6.25 6.25z"/><glyph glyph-name="array-1" unicode="array" horiz-adv-x="100" d="M32.519-7.862A6.138 6.138 0 0 1 26.38-1.72h-7.237V73.72h7.231a6.138 6.138 0 0 1 0 12.281H9.812a6.25 6.25 0 0 1-6.25-6.25v-87.5A6.25 6.25 0 0 1 9.813-14h16.563a6.14 6.14 0 0 1 6.138 6.138zm64.35.112v87.5a6.25 6.25 0 0 1-6.25 6.25H74.056a6.138 6.138 0 1 1 0-12.281H81.3V-1.72h-7.237a6.138 6.138 0 1 1 0-12.281h16.556a6.25 6.25 0 0 1 6.25 6.25z"/><glyph glyph-name="arrow-down" unicode="" horiz-adv-x="100" d="M57.275 46.925V84.15A1.844 1.844 0 0 1 55.462 86H44.537a1.844 1.844 0 0 1-1.818-1.85V46.925H7.294c-1 0-1.363-.65-.725-1.487l42.337-58.813c.638-.831 1.55-.831 2.188 0L93.43 45.438c.638.837.275 1.487-.725 1.487H57.275z"/><glyph glyph-name="arrow-down-1" unicode="arrow-down" horiz-adv-x="100" d="M57.275 46.925V84.15A1.844 1.844 0 0 1 55.462 86H44.537a1.844 1.844 0 0 1-1.818-1.85V46.925H7.294c-1 0-1.363-.65-.725-1.487l42.337-58.813c.638-.831 1.55-.831 2.188 0L93.43 45.438c.638.837.275 1.487-.725 1.487H57.275z"/><glyph glyph-name="arrow-left" unicode="" horiz-adv-x="100" d="M60.925 28.725H98.15a1.844 1.844 0 0 1 1.85 1.813v10.924a1.844 1.844 0 0 1-1.85 1.82H60.925v35.424c0 1-.65 1.363-1.487.725L.624 37.094c-.831-.638-.831-1.55 0-2.188L59.438-7.43c.837-.638 1.487-.275 1.487.725v35.431z"/><glyph glyph-name="arrow-left-1" unicode="arrow-left" horiz-adv-x="100" d="M60.925 28.725H98.15a1.844 1.844 0 0 1 1.85 1.813v10.924a1.844 1.844 0 0 1-1.85 1.82H60.925v35.424c0 1-.65 1.363-1.487.725L.624 37.094c-.831-.638-.831-1.55 0-2.188L59.438-7.43c.837-.638 1.487-.275 1.487.725v35.431z"/><glyph glyph-name="arrow-right" unicode="" horiz-adv-x="100" d="M39.075 43.275H1.85A1.844 1.844 0 0 1 0 41.462V30.544c0-1 .831-1.819 1.85-1.819h37.225V-6.706c0-1 .65-1.363 1.487-.725l58.813 42.337c.831.638.831 1.55 0 2.188L40.562 79.43c-.837.638-1.487.275-1.487-.725V43.275z"/><glyph glyph-name="arrow-right-1" unicode="arrow-right" horiz-adv-x="100" d="M39.075 43.275H1.85A1.844 1.844 0 0 1 0 41.462V30.544c0-1 .831-1.819 1.85-1.819h37.225V-6.706c0-1 .65-1.363 1.487-.725l58.813 42.337c.831.638.831 1.55 0 2.188L40.562 79.43c-.837.638-1.487.275-1.487-.725V43.275z"/><glyph glyph-name="arrow-up" unicode="" horiz-adv-x="100" d="M57.275 25.075V-12.15A1.844 1.844 0 0 0 55.462-14H44.537a1.844 1.844 0 0 0-1.818 1.85v37.225H7.294c-1 0-1.363.65-.725 1.488l42.337 58.812c.638.831 1.55.831 2.188 0L93.43 26.562c.638-.837.275-1.487-.725-1.487H57.275z"/><glyph glyph-name="arrow-up-1" unicode="arrow-up" horiz-adv-x="100" d="M57.275 25.075V-12.15A1.844 1.844 0 0 0 55.462-14H44.537a1.844 1.844 0 0 0-1.818 1.85v37.225H7.294c-1 0-1.363.65-.725 1.488l42.337 58.812c.638.831 1.55.831 2.188 0L93.43 26.562c.638-.837.275-1.487-.725-1.487H57.275z"/><glyph glyph-name="assign" unicode="" horiz-adv-x="100" d="M80.356 48.5c11.038 0 18.425-6.875 18.707-7.144.562-.625.937-1.425.937-2.231v-25a3.05 3.05 0 0 0-1.775-2.769l-5.056-2.412L90.18-11.32A3.35 3.35 0 0 0 86.906-14H73.812c-1.687 0-3.087 1.162-3.275 2.681l-3 20.263-5.043 2.412a3.05 3.05 0 0 0-1.782 2.769v25c0 .894.282 1.606.938 2.231.375.269 7.663 7.144 18.706 7.144zM25 61l28.569-25.144L25 11v17.856H0v14.288h25V61zm55.356 25c6.875 0 12.5-5.787 12.5-12.856v-6.431c0-7.07-5.625-12.857-12.5-12.857s-12.5 5.788-12.5 12.857v6.43c0 7.07 5.625 12.857 12.5 12.857z"/><glyph glyph-name="assign-1" unicode="assign" horiz-adv-x="100" d="M80.356 48.5c11.038 0 18.425-6.875 18.707-7.144.562-.625.937-1.425.937-2.231v-25a3.05 3.05 0 0 0-1.775-2.769l-5.056-2.412L90.18-11.32A3.35 3.35 0 0 0 86.906-14H73.812c-1.687 0-3.087 1.162-3.275 2.681l-3 20.263-5.043 2.412a3.05 3.05 0 0 0-1.782 2.769v25c0 .894.282 1.606.938 2.231.375.269 7.663 7.144 18.706 7.144zM25 61l28.569-25.144L25 11v17.856H0v14.288h25V61zm55.356 25c6.875 0 12.5-5.787 12.5-12.856v-6.431c0-7.07-5.625-12.857-12.5-12.857s-12.5 5.788-12.5 12.857v6.43c0 7.07 5.625 12.857 12.5 12.857z"/><glyph glyph-name="back" unicode="" horiz-adv-x="100" d="M50 86c27.588 0 50-22.413 50-50S77.588-14 50-14 0 8.413 0 36s22.413 50 50 50zm8.038-29.313l-24.825-18.3a3.15 3.15 0 0 1 0-4.73L58.037 15.35c1.425-1.338 2.675-.806 2.675 1.162v39.02c0 1.962-1.157 2.5-2.675 1.156z"/><glyph glyph-name="back-1" unicode="back" horiz-adv-x="100" d="M50 86c27.588 0 50-22.413 50-50S77.588-14 50-14 0 8.413 0 36s22.413 50 50 50zm8.038-29.313l-24.825-18.3a3.15 3.15 0 0 1 0-4.73L58.037 15.35c1.425-1.338 2.675-.806 2.675 1.162v39.02c0 1.962-1.157 2.5-2.675 1.156z"/><glyph glyph-name="bell" unicode="" horiz-adv-x="100" d="M98.938 1.625c-31.144 21.438-11.313 69.831-41.82 76.031.02.213.032.438.032.656C57.144 82.563 53.938 86 50 86s-7.144-3.438-7.144-7.688c0-.224.013-.45.032-.662C12.38 71.45 32.213 23.062 1.063 1.625.305 1.106.006.144.006-.75a3.125 3.125 0 0 1 3.125-3.163h36.25C40.038-9.592 44.538-14 50-14s9.962 4.406 10.625 10.094h36.25A3.125 3.125 0 0 1 100-.744c0 .894-.3 1.857-1.063 2.375"/><glyph glyph-name="bell-1" unicode="bell" horiz-adv-x="100" d="M98.938 1.625c-31.144 21.438-11.313 69.831-41.82 76.031.02.213.032.438.032.656C57.144 82.563 53.938 86 50 86s-7.144-3.438-7.144-7.688c0-.224.013-.45.032-.662C12.38 71.45 32.213 23.062 1.063 1.625.305 1.106.006.144.006-.75a3.125 3.125 0 0 1 3.125-3.163h36.25C40.038-9.592 44.538-14 50-14s9.962 4.406 10.625 10.094h36.25A3.125 3.125 0 0 1 100-.744c0 .894-.3 1.857-1.063 2.375"/><glyph glyph-name="binder-clip" unicode="" horiz-adv-x="100" d="M50 86c12.063 0 21.875-7.487 21.875-16.688 0-5.137-3.463-9.18-7.213-12.793-2.08-2.013-4.962-6.669-2.512-11.375L76.138 4.75H87.5a6.25 6.25 0 0 0 0-12.5h-75a6.25 6.25 0 1 0 0 12.5h11.35L26.012 11H12L7.606 34.875a6.263 6.263 0 0 0 6.144 7.375h23.063l.856 2.475c2.625 5.125-.25 9.781-2.344 11.794-3.744 3.612-7.2 7.656-7.2 12.794C28.125 78.513 37.938 86 50 86zm0-6.25c-8.475 0-15.625-4.781-15.625-10.438 0-2.65 2.125-5.23 5.288-8.3 4.468-4.3 7.35-11.768 3.737-18.75L30.462 4.75h39.07L67.368 11H39.244L49.28 40.075A23.875 23.875 0 0 1 50 41.737v.513h6.563l-.144.425c-3.438 6.569-.556 14.038 3.906 18.338 3.188 3.068 5.3 5.65 5.3 8.3 0 5.656-7.156 10.437-15.625 10.437zm36.25-37.5c3.894 0 6.844-3.538 6.144-7.381L88.012 11h-7.424l-10.8 31.25z"/><glyph glyph-name="binder-clip-1" unicode="binder-clip" horiz-adv-x="100" d="M50 86c12.063 0 21.875-7.487 21.875-16.688 0-5.137-3.463-9.18-7.213-12.793-2.08-2.013-4.962-6.669-2.512-11.375L76.138 4.75H87.5a6.25 6.25 0 0 0 0-12.5h-75a6.25 6.25 0 1 0 0 12.5h11.35L26.012 11H12L7.606 34.875a6.263 6.263 0 0 0 6.144 7.375h23.063l.856 2.475c2.625 5.125-.25 9.781-2.344 11.794-3.744 3.612-7.2 7.656-7.2 12.794C28.125 78.513 37.938 86 50 86zm0-6.25c-8.475 0-15.625-4.781-15.625-10.438 0-2.65 2.125-5.23 5.288-8.3 4.468-4.3 7.35-11.768 3.737-18.75L30.462 4.75h39.07L67.368 11H39.244L49.28 40.075A23.875 23.875 0 0 1 50 41.737v.513h6.563l-.144.425c-3.438 6.569-.556 14.038 3.906 18.338 3.188 3.068 5.3 5.65 5.3 8.3 0 5.656-7.156 10.437-15.625 10.437zm36.25-37.5c3.894 0 6.844-3.538 6.144-7.381L88.012 11h-7.424l-10.8 31.25z"/><glyph glyph-name="bing" unicode="" horiz-adv-x="100" d="M38.7 60.106l11.206-22.044 16.407-6.874L6.98 2.7l24.331 19.825v56.413L6.25 86V1.981L31.131-14 93.75 20.106v24.556z"/><glyph glyph-name="bing-1" unicode="bing" horiz-adv-x="100" d="M38.7 60.106l11.206-22.044 16.407-6.874L6.98 2.7l24.331 19.825v56.413L6.25 86V1.981L31.131-14 93.75 20.106v24.556z"/><glyph glyph-name="binoculars" unicode="" horiz-adv-x="100" d="M83.55 3.031c-9.706 0-17.575 8.125-17.575 18.132 0 10.018 7.875 18.13 17.575 18.13 9.706 0 17.575-8.112 17.575-18.124 0-10.019-7.869-18.138-17.575-18.138M50 22.813c-3.531 0-6.394 2.95-6.394 6.593S46.47 36 50 36s6.394-2.95 6.394-6.594S53.53 22.813 50 22.813M16.45 3.03c-9.706 0-17.575 8.125-17.575 18.132 0 10.018 7.869 18.13 17.575 18.13s17.575-8.112 17.575-18.124C34.025 11.15 26.15 3.03 16.45 3.03m81.131 42.125C93.606 51.544 81.956 68.97 78.762 68.97a21.875 21.875 0 0 1-1.568-.063c-2.832 2.769-6.025 5.4-7.632 7.056a9.375 9.375 0 0 1-13.562 0 9.907 9.907 0 0 1-2.544-4.75 6.219 6.219 0 0 1-6.912 0 9.912 9.912 0 0 1-2.55 4.75 9.375 9.375 0 0 1-13.556 0c-1.607-1.656-4.8-4.287-7.632-7.062a21.875 21.875 0 0 1-1.562.063c-3.2 0-14.85-17.42-18.825-23.8a28.194 28.194 0 0 1-13.132-24c0-15.476 12.157-28.02 27.163-28.02 12.831 0 23.581 9.188 26.419 21.532A15.446 15.446 0 0 1 50 12.925c2.563 0 4.981.637 7.131 1.75C59.97 2.331 70.72-6.856 83.55-6.856c15 0 27.163 12.543 27.163 28.019a28.194 28.194 0 0 1-13.125 24"/><glyph glyph-name="binoculars-1" unicode="binoculars" horiz-adv-x="100" d="M83.55 3.031c-9.706 0-17.575 8.125-17.575 18.132 0 10.018 7.875 18.13 17.575 18.13 9.706 0 17.575-8.112 17.575-18.124 0-10.019-7.869-18.138-17.575-18.138M50 22.813c-3.531 0-6.394 2.95-6.394 6.593S46.47 36 50 36s6.394-2.95 6.394-6.594S53.53 22.813 50 22.813M16.45 3.03c-9.706 0-17.575 8.125-17.575 18.132 0 10.018 7.869 18.13 17.575 18.13s17.575-8.112 17.575-18.124C34.025 11.15 26.15 3.03 16.45 3.03m81.131 42.125C93.606 51.544 81.956 68.97 78.762 68.97a21.875 21.875 0 0 1-1.568-.063c-2.832 2.769-6.025 5.4-7.632 7.056a9.375 9.375 0 0 1-13.562 0 9.907 9.907 0 0 1-2.544-4.75 6.219 6.219 0 0 1-6.912 0 9.912 9.912 0 0 1-2.55 4.75 9.375 9.375 0 0 1-13.556 0c-1.607-1.656-4.8-4.287-7.632-7.062a21.875 21.875 0 0 1-1.562.063c-3.2 0-14.85-17.42-18.825-23.8a28.194 28.194 0 0 1-13.132-24c0-15.476 12.157-28.02 27.163-28.02 12.831 0 23.581 9.188 26.419 21.532A15.446 15.446 0 0 1 50 12.925c2.563 0 4.981.637 7.131 1.75C59.97 2.331 70.72-6.856 83.55-6.856c15 0 27.163 12.543 27.163 28.019a28.194 28.194 0 0 1-13.125 24"/><glyph glyph-name="bitly" unicode="" horiz-adv-x="100" d="M50.625-2.663c6.606-1.25 13.481.45 14.819 10.72 1.431 10.262-2.675 14.374-7.588 14.374S44.731 16.538 44.731 6.087c0-6.25 3.663-8.393 5.894-8.75M29.462 45.563c-1.606-1.626-3.212-.813-3.837-.188s-1.875 2.5-.712 4.731c1.156 2.144 5.087 6.431 10 6.431 4.906 0 10.175-3.124 10.175-11.787s.18-15.894.18-15.894c22.945 15.894 37.5-7.412 29.82-26.606 4.73 2.144 15.268 15.625 15.268 34.288 0 18.568-16.875 37.943-40.443 37.943-23.575 0-40.625-21.162-40.625-38.925 0-17.768 11.606-30.537 14.375-32.862 2.768-2.319 2.856-4.731 1.875-6.069-.982-1.338-3.932-1.787-6.076-.181C17.32-1.937 0 10.913 0 34.569 0 63.769 23.125 86 49.819 86 76.519 86 100 63.681 100 35.913S74.731-14 53.75-14 32.144 3.856 32.144 3.856V43.77c.269 5-1.075 3.394-2.681 1.787"/><glyph glyph-name="bitly-1" unicode="bitly" horiz-adv-x="100" d="M50.625-2.663c6.606-1.25 13.481.45 14.819 10.72 1.431 10.262-2.675 14.374-7.588 14.374S44.731 16.538 44.731 6.087c0-6.25 3.663-8.393 5.894-8.75M29.462 45.563c-1.606-1.626-3.212-.813-3.837-.188s-1.875 2.5-.712 4.731c1.156 2.144 5.087 6.431 10 6.431 4.906 0 10.175-3.124 10.175-11.787s.18-15.894.18-15.894c22.945 15.894 37.5-7.412 29.82-26.606 4.73 2.144 15.268 15.625 15.268 34.288 0 18.568-16.875 37.943-40.443 37.943-23.575 0-40.625-21.162-40.625-38.925 0-17.768 11.606-30.537 14.375-32.862 2.768-2.319 2.856-4.731 1.875-6.069-.982-1.338-3.932-1.787-6.076-.181C17.32-1.937 0 10.913 0 34.569 0 63.769 23.125 86 49.819 86 76.519 86 100 63.681 100 35.913S74.731-14 53.75-14 32.144 3.856 32.144 3.856V43.77c.269 5-1.075 3.394-2.681 1.787"/><glyph glyph-name="blog" unicode="" horiz-adv-x="100" d="M82.306 29.788A36.813 36.813 0 0 1 45.525 66.55v8.713c25.113 0 45.544-20.4 45.544-45.476h-8.757zm-15.487.006c0 5.7-2.219 11.056-6.25 15.075a21.169 21.169 0 0 1-15.056 6.225v8.718A30.075 30.075 0 0 0 75.58 29.794H66.82zM54.075 11.456C50.344 7.57 45.85 5.625 40.587 5.625c-5.312 0-9.825 1.931-13.562 5.8-3.731 3.862-5.594 8.55-5.594 14.05v27.962c0 1.876.563 3.332 1.688 4.363a5.756 5.756 0 0 0 4.012 1.544 5.75 5.75 0 0 0 4-1.55c1.132-1.025 1.7-2.481 1.7-4.363V25.42c0-2.288.756-4.219 2.281-5.813 1.52-1.587 3.357-2.381 5.507-2.381 2.106 0 3.931.794 5.475 2.387s2.312 3.538 2.312 5.832c0 2.287-.7 4.062-2.125 5.319-1.412 1.256-3.331 1.887-5.762 1.887-1.75 0-3.15.6-4.188 1.813a5.525 5.525 0 0 0-1.412 3.887c0 1.519.5 2.85 1.487 3.987.988 1.144 2.357 1.713 4.113 1.713 5.575 0 10.162-1.731 13.762-5.2 3.6-3.462 5.394-7.925 5.394-13.375 0-5.456-1.862-10.125-5.6-14.019zM50 86C22.413 86 0 63.587 0 36s22.413-50 50-50 50 22.413 50 50-22.412 50-50 50z"/><glyph glyph-name="blog-1" unicode="blog" horiz-adv-x="100" d="M82.306 29.788A36.813 36.813 0 0 1 45.525 66.55v8.713c25.113 0 45.544-20.4 45.544-45.476h-8.757zm-15.487.006c0 5.7-2.219 11.056-6.25 15.075a21.169 21.169 0 0 1-15.056 6.225v8.718A30.075 30.075 0 0 0 75.58 29.794H66.82zM54.075 11.456C50.344 7.57 45.85 5.625 40.587 5.625c-5.312 0-9.825 1.931-13.562 5.8-3.731 3.862-5.594 8.55-5.594 14.05v27.962c0 1.876.563 3.332 1.688 4.363a5.756 5.756 0 0 0 4.012 1.544 5.75 5.75 0 0 0 4-1.55c1.132-1.025 1.7-2.481 1.7-4.363V25.42c0-2.288.756-4.219 2.281-5.813 1.52-1.587 3.357-2.381 5.507-2.381 2.106 0 3.931.794 5.475 2.387s2.312 3.538 2.312 5.832c0 2.287-.7 4.062-2.125 5.319-1.412 1.256-3.331 1.887-5.762 1.887-1.75 0-3.15.6-4.188 1.813a5.525 5.525 0 0 0-1.412 3.887c0 1.519.5 2.85 1.487 3.987.988 1.144 2.357 1.713 4.113 1.713 5.575 0 10.162-1.731 13.762-5.2 3.6-3.462 5.394-7.925 5.394-13.375 0-5.456-1.862-10.125-5.6-14.019zM50 86C22.413 86 0 63.587 0 36s22.413-50 50-50 50 22.413 50 50-22.412 50-50 50z"/><glyph glyph-name="bold" unicode="" horiz-adv-x="100" d="M55.094 80.644c4.669 0 8.968-.375 12.8-1.119s7.2-1.95 9.906-3.719c2.713-1.675 4.862-4 6.356-6.787 1.5-2.794 2.244-6.325 2.244-10.513 0-4.462-1.125-8.275-3.363-11.25-2.25-2.981-5.612-5.487-10-7.35 6.075-1.581 10.563-4.375 13.55-8.275 2.988-4 4.482-8.75 4.482-14.325 0-4.462-.938-8.375-2.894-11.719-1.962-3.25-4.487-5.95-7.756-8.093a38.4 38.4 0 0 0-11.125-4.65A53.769 53.769 0 0 0 56.4-8.644H8.938v89.288H55.1zm-2.719-36.182c3.831 0 7.013.838 9.531 2.513 2.438 1.675 3.738 4.375 3.738 8.094 0 2.043-.375 3.812-1.213 5.112a9.637 9.637 0 0 1-3.268 3.163 14.363 14.363 0 0 1-4.77 1.581 35.987 35.987 0 0 1-5.605.463H30.513V44.462h21.875zm1.219-37.85c2.15 0 4.112.188 6.075.557a15.375 15.375 0 0 1 5.044 1.862c1.5.832 2.618 2.044 3.55 3.531.843 1.488 1.312 3.438 1.312 5.77 0 4.555-1.406 7.812-4.3 9.855-2.806 1.957-6.638 2.976-11.313 2.976h-23.45V6.613H53.6z"/><glyph glyph-name="bold-1" unicode="bold" horiz-adv-x="100" d="M55.094 80.644c4.669 0 8.968-.375 12.8-1.119s7.2-1.95 9.906-3.719c2.713-1.675 4.862-4 6.356-6.787 1.5-2.794 2.244-6.325 2.244-10.513 0-4.462-1.125-8.275-3.363-11.25-2.25-2.981-5.612-5.487-10-7.35 6.075-1.581 10.563-4.375 13.55-8.275 2.988-4 4.482-8.75 4.482-14.325 0-4.462-.938-8.375-2.894-11.719-1.962-3.25-4.487-5.95-7.756-8.093a38.4 38.4 0 0 0-11.125-4.65A53.769 53.769 0 0 0 56.4-8.644H8.938v89.288H55.1zm-2.719-36.182c3.831 0 7.013.838 9.531 2.513 2.438 1.675 3.738 4.375 3.738 8.094 0 2.043-.375 3.812-1.213 5.112a9.637 9.637 0 0 1-3.268 3.163 14.363 14.363 0 0 1-4.77 1.581 35.987 35.987 0 0 1-5.605.463H30.513V44.462h21.875zm1.219-37.85c2.15 0 4.112.188 6.075.557a15.375 15.375 0 0 1 5.044 1.862c1.5.832 2.618 2.044 3.55 3.531.843 1.488 1.312 3.438 1.312 5.77 0 4.555-1.406 7.812-4.3 9.855-2.806 1.957-6.638 2.976-11.313 2.976h-23.45V6.613H53.6z"/><glyph glyph-name="book" unicode="" horiz-adv-x="100" d="M11 20.306L6.319 21.97v13.593l42.537-14.237c1.638-.462 4.056.275 5.225 1.75L99.27 72.181c1.25 1.475.856 3.05-.857 3.513L52.987 85.862c-1.637.463-4.056-.274-5.224-1.756L.7 40.463a2.813 2.813 0 0 1-.7-1.757V20.212c0-2.03 1.325-4.068 3.044-4.624l7.881-2.682v-22l8.587 4.338L31.22-14v33.938l-20.294 6.75v-6.382h.081zM99.969 51.47c0-3.238 0-3.7-2.188-6.288L56.27.794c-1.25-1.482-3.594-2.219-5.231-1.756l-13.5 4.625v7.393l13.5-4.625c1.637-.456 4.062.282 5.23 1.763l41.52 44.381c1.168 1.387 2.187.925 2.187-1.106z"/><glyph glyph-name="book-1" unicode="book" horiz-adv-x="100" d="M11 20.306L6.319 21.97v13.593l42.537-14.237c1.638-.462 4.056.275 5.225 1.75L99.27 72.181c1.25 1.475.856 3.05-.857 3.513L52.987 85.862c-1.637.463-4.056-.274-5.224-1.756L.7 40.463a2.813 2.813 0 0 1-.7-1.757V20.212c0-2.03 1.325-4.068 3.044-4.624l7.881-2.682v-22l8.587 4.338L31.22-14v33.938l-20.294 6.75v-6.382h.081zM99.969 51.47c0-3.238 0-3.7-2.188-6.288L56.27.794c-1.25-1.482-3.594-2.219-5.231-1.756l-13.5 4.625v7.393l13.5-4.625c1.637-.456 4.062.282 5.23 1.763l41.52 44.381c1.168 1.387 2.187.925 2.187-1.106z"/><glyph glyph-name="boolean" unicode="" horiz-adv-x="100" d="M67.856 68.144a32.144 32.144 0 0 0 0-64.288H32.144a32.144 32.144 0 1 0 0 64.288h35.712zm-35.712-8.932a23.212 23.212 0 1 1 0-46.425 23.212 23.212 0 0 1 0 46.425z"/><glyph glyph-name="boolean-1" unicode="boolean" horiz-adv-x="100" d="M67.856 68.144a32.144 32.144 0 0 0 0-64.288H32.144a32.144 32.144 0 1 0 0 64.288h35.712zm-35.712-8.932a23.212 23.212 0 1 1 0-46.425 23.212 23.212 0 0 1 0 46.425z"/><glyph glyph-name="border-color" unicode="" horiz-adv-x="100" d="M10-2.313c0 2.182 3.331 2.213 3.331 0 0-3.312 3.338-5.018 6.669-5.018h76.669a3.344 3.344 0 0 0 0-6.669H3.33A3.344 3.344 0 0 0 0-10.669C0-8.83 1.5-7.33 3.331-7.33 6.67-7.331 10-5.62 10-2.32zm23.438 36.226L41.25 26.1c-.456-11.031-4.075-15.275-8.731-16.75C25.144 6.681 13.33 7.281 13.33 4.325c0-2.238-3.387-2.181-3.331 0 .213 8.169 2.606 29.588 23.438 29.588zM90.725 86a2.6 2.6 0 0 0 2.338-3.769C88 72.12 61.513 37.3 47.8 29.075a2.612 2.612 0 0 0-3.188.387L36.8 37.276a2.606 2.606 0 0 0-.387 3.188c8.23 13.706 43.037 40.2 53.15 45.256a2.606 2.606 0 0 0 1.162.281z"/><glyph glyph-name="border-color-1" unicode="border-color" horiz-adv-x="100" d="M10-2.313c0 2.182 3.331 2.213 3.331 0 0-3.312 3.338-5.018 6.669-5.018h76.669a3.344 3.344 0 0 0 0-6.669H3.33A3.344 3.344 0 0 0 0-10.669C0-8.83 1.5-7.33 3.331-7.33 6.67-7.331 10-5.62 10-2.32zm23.438 36.226L41.25 26.1c-.456-11.031-4.075-15.275-8.731-16.75C25.144 6.681 13.33 7.281 13.33 4.325c0-2.238-3.387-2.181-3.331 0 .213 8.169 2.606 29.588 23.438 29.588zM90.725 86a2.6 2.6 0 0 0 2.338-3.769C88 72.12 61.513 37.3 47.8 29.075a2.612 2.612 0 0 0-3.188.387L36.8 37.276a2.606 2.606 0 0 0-.387 3.188c8.23 13.706 43.037 40.2 53.15 45.256a2.606 2.606 0 0 0 1.162.281z"/><glyph glyph-name="branch-continue" unicode="" horiz-adv-x="100" d="M34.819 86V37.788H71.43v-6.25H34.813V-14h-6.25V86h6.25z"/><glyph glyph-name="branch-continue-1" unicode="branch-continue" horiz-adv-x="100" d="M34.819 86V37.788H71.43v-6.25H34.813V-14h-6.25V86h6.25z"/><glyph glyph-name="branch-end" unicode="" horiz-adv-x="100" d="M28.569 86h6.25V37.788H71.43v-6.25H28.563V86z"/><glyph glyph-name="branch-end-1" unicode="branch-end" horiz-adv-x="100" d="M28.569 86h6.25V37.788H71.43v-6.25H28.563V86z"/><glyph glyph-name="branch-extension" unicode="" horiz-adv-x="100" d="M34.819 86V-14h-6.25V86z"/><glyph glyph-name="branch-extension-1" unicode="branch-extension" horiz-adv-x="100" d="M34.819 86V-14h-6.25V86z"/><glyph glyph-name="bubble-2" unicode="" horiz-adv-x="100" d="M50 86C22.425 86 0 65.194 0 39.569 0 28.319 4.3 17.962 11.481 9.93L6.25-14 27.5-1.856c6.794-3.213 14.456-5 22.5-5 27.575 0 50 20.8 50 46.425S77.575 86 50 86zm25-53.569a7.112 7.112 0 0 0-7.144 7.138c0 3.968 3.175 7.143 7.144 7.143s7.144-3.175 7.144-7.143A7.113 7.113 0 0 0 75 32.43zm-25 0a7.112 7.112 0 0 0-7.144 7.132c0 3.968 3.175 7.143 7.144 7.143s7.144-3.175 7.144-7.144A7.113 7.113 0 0 0 50 32.425zm-25 0a7.112 7.112 0 0 0-7.144 7.132c0 3.968 3.175 7.143 7.144 7.143s7.144-3.175 7.144-7.144A7.113 7.113 0 0 0 25 32.425z"/><glyph glyph-name="bubble-2-1" unicode="bubble-2" horiz-adv-x="100" d="M50 86C22.425 86 0 65.194 0 39.569 0 28.319 4.3 17.962 11.481 9.93L6.25-14 27.5-1.856c6.794-3.213 14.456-5 22.5-5 27.575 0 50 20.8 50 46.425S77.575 86 50 86zm25-53.569a7.112 7.112 0 0 0-7.144 7.138c0 3.968 3.175 7.143 7.144 7.143s7.144-3.175 7.144-7.143A7.113 7.113 0 0 0 75 32.43zm-25 0a7.112 7.112 0 0 0-7.144 7.132c0 3.968 3.175 7.143 7.144 7.143s7.144-3.175 7.144-7.144A7.113 7.113 0 0 0 50 32.425zm-25 0a7.112 7.112 0 0 0-7.144 7.132c0 3.968 3.175 7.143 7.144 7.143s7.144-3.175 7.144-7.144A7.113 7.113 0 0 0 25 32.425z"/><glyph glyph-name="bubble-cash" unicode="" horiz-adv-x="100" d="M50 86c27.575 0 50-20.806 50-46.431S77.575-6.856 50-6.856a52.569 52.569 0 0 0-22.5 5L6.25-14l5.231 23.931C4.3 17.962 0 28.313 0 39.563 0 65.192 22.419 86 50 86zm1.438-14.287c-1.063 0-1.675-.325-1.857-.975-.187-.657-.275-1.438-.275-2.357v-2.319c-4.675-.487-8.662-2.162-11.968-5.037-3.307-2.875-4.957-6.631-4.957-11.269 0-4.306 1.35-7.35 4.05-9.137a31.914 31.914 0 0 1 8.863-4.056 29.164 29.164 0 0 1 1.844-.5c.606-.15 1.193-.32 1.775-.513.05 0 .118-.012.193-.037.081-.026.144-.013.2.037V23.375a17.438 17.438 0 0 0-2.95.544 59.75 59.75 0 0 0-2.8.831 153.625 153.625 0 0 1-3.187.938 10.813 10.813 0 0 1-2.95.437c-1.625 0-2.913-.5-3.856-1.519a5.125 5.125 0 0 1-1.42-3.625c0-2.225 1.126-3.9 3.388-5.037 2.25-1.138 4.75-1.894 7.475-2.282a39.712 39.712 0 0 1 6.3-.58v-2.463c0-.775.107-1.5.313-2.175.212-.675.812-1.013 1.812-1.013s1.6.338 1.813 1.013a7.313 7.313 0 0 1 .312 2.175v2.537c4.938.338 9.144 1.963 12.638 4.888 3.487 2.925 5.237 6.806 5.237 11.637 0 4.638-1.356 8.019-4.062 10.144a27.712 27.712 0 0 1-8.931 4.712 36.487 36.487 0 0 1-2.482.763c-.812.213-1.612.438-2.4.688v9.562a17.991 17.991 0 0 0 2.169-.394 31.3 31.3 0 0 0 1.844-.55c.375-.144.737-.262 1.106-.362l1.1-.288c.369-.094.738-.181 1.106-.25a6.075 6.075 0 0 1 1.181-.112c1.626 0 2.913.544 3.857 1.631a5.519 5.519 0 0 1 1.412 3.731c0 1.788-.862 3.188-2.594 4.206a18.925 18.925 0 0 1-5.668 2.176 26.875 26.875 0 0 1-2.913.543 40.788 40.788 0 0 1-2.6.25v2.181c0 .97-.093 1.776-.275 2.432-.187.65-.8.975-1.85.975zm.33-37.47c1.526-.48 2.757-1.087 3.7-1.812.95-.725 1.42-1.687 1.42-2.9 0-1.4-.438-2.631-1.3-3.694-.863-1.062-2.138-1.762-3.813-2.1v10.507zm-4.25 21.313V47.22a10.225 10.225 0 0 0-3.03 1.562 2.794 2.794 0 0 0-1.138 2.275c0 1.163.406 2.113 1.219 2.863s1.793 1.294 2.95 1.631z"/><glyph glyph-name="bubble-cash-1" unicode="bubble-cash" horiz-adv-x="100" d="M50 86c27.575 0 50-20.806 50-46.431S77.575-6.856 50-6.856a52.569 52.569 0 0 0-22.5 5L6.25-14l5.231 23.931C4.3 17.962 0 28.313 0 39.563 0 65.192 22.419 86 50 86zm1.438-14.287c-1.063 0-1.675-.325-1.857-.975-.187-.657-.275-1.438-.275-2.357v-2.319c-4.675-.487-8.662-2.162-11.968-5.037-3.307-2.875-4.957-6.631-4.957-11.269 0-4.306 1.35-7.35 4.05-9.137a31.914 31.914 0 0 1 8.863-4.056 29.164 29.164 0 0 1 1.844-.5c.606-.15 1.193-.32 1.775-.513.05 0 .118-.012.193-.037.081-.026.144-.013.2.037V23.375a17.438 17.438 0 0 0-2.95.544 59.75 59.75 0 0 0-2.8.831 153.625 153.625 0 0 1-3.187.938 10.813 10.813 0 0 1-2.95.437c-1.625 0-2.913-.5-3.856-1.519a5.125 5.125 0 0 1-1.42-3.625c0-2.225 1.126-3.9 3.388-5.037 2.25-1.138 4.75-1.894 7.475-2.282a39.712 39.712 0 0 1 6.3-.58v-2.463c0-.775.107-1.5.313-2.175.212-.675.812-1.013 1.812-1.013s1.6.338 1.813 1.013a7.313 7.313 0 0 1 .312 2.175v2.537c4.938.338 9.144 1.963 12.638 4.888 3.487 2.925 5.237 6.806 5.237 11.637 0 4.638-1.356 8.019-4.062 10.144a27.712 27.712 0 0 1-8.931 4.712 36.487 36.487 0 0 1-2.482.763c-.812.213-1.612.438-2.4.688v9.562a17.991 17.991 0 0 0 2.169-.394 31.3 31.3 0 0 0 1.844-.55c.375-.144.737-.262 1.106-.362l1.1-.288c.369-.094.738-.181 1.106-.25a6.075 6.075 0 0 1 1.181-.112c1.626 0 2.913.544 3.857 1.631a5.519 5.519 0 0 1 1.412 3.731c0 1.788-.862 3.188-2.594 4.206a18.925 18.925 0 0 1-5.668 2.176 26.875 26.875 0 0 1-2.913.543 40.788 40.788 0 0 1-2.6.25v2.181c0 .97-.093 1.776-.275 2.432-.187.65-.8.975-1.85.975zm.33-37.47c1.526-.48 2.757-1.087 3.7-1.812.95-.725 1.42-1.687 1.42-2.9 0-1.4-.438-2.631-1.3-3.694-.863-1.062-2.138-1.762-3.813-2.1v10.507zm-4.25 21.313V47.22a10.225 10.225 0 0 0-3.03 1.562 2.794 2.794 0 0 0-1.138 2.275c0 1.163.406 2.113 1.219 2.863s1.793 1.294 2.95 1.631z"/><glyph glyph-name="bubble-clock" unicode="" horiz-adv-x="100" d="M50 86c27.575 0 50-20.806 50-46.431S77.575-6.856 50-6.856a52.569 52.569 0 0 0-22.5 5L6.25-14l5.231 23.931C4.3 17.962 0 28.313 0 39.563 0 65.192 22.419 86 50 86zm-.6-14.287c-2.619 0-4.756-2.25-4.756-5v-30c0-1.876.95-3.626 2.612-4.5l19.025-10c.713-.376 1.425-.5 2.144-.5 1.781 0 3.444 1 4.275 2.75 1.188 2.5.237 5.5-2.138 6.75l-16.406 8.624v26.876c0 2.75-2.143 5-4.756 5z"/><glyph glyph-name="bubble-clock-1" unicode="bubble-clock" horiz-adv-x="100" d="M50 86c27.575 0 50-20.806 50-46.431S77.575-6.856 50-6.856a52.569 52.569 0 0 0-22.5 5L6.25-14l5.231 23.931C4.3 17.962 0 28.313 0 39.563 0 65.192 22.419 86 50 86zm-.6-14.287c-2.619 0-4.756-2.25-4.756-5v-30c0-1.876.95-3.626 2.612-4.5l19.025-10c.713-.376 1.425-.5 2.144-.5 1.781 0 3.444 1 4.275 2.75 1.188 2.5.237 5.5-2.138 6.75l-16.406 8.624v26.876c0 2.75-2.143 5-4.756 5z"/><glyph glyph-name="bubble-dots" unicode="" horiz-adv-x="100" d="M50 86C22.425 86 0 65.194 0 39.569 0 28.319 4.3 17.962 11.481 9.93L6.25-14 27.5-1.856c6.794-3.213 14.456-5 22.5-5 27.575 0 50 20.8 50 46.425S77.575 86 50 86zm25-53.569a7.112 7.112 0 0 0-7.144 7.138c0 3.968 3.175 7.143 7.144 7.143s7.144-3.175 7.144-7.143A7.113 7.113 0 0 0 75 32.43zm-25 0a7.112 7.112 0 0 0-7.144 7.132c0 3.968 3.175 7.143 7.144 7.143s7.144-3.175 7.144-7.144A7.113 7.113 0 0 0 50 32.425zm-25 0a7.112 7.112 0 0 0-7.144 7.132c0 3.968 3.175 7.143 7.144 7.143s7.144-3.175 7.144-7.144A7.113 7.113 0 0 0 25 32.425z"/><glyph glyph-name="bubble-dots-1" unicode="bubble-dots" horiz-adv-x="100" d="M50 86C22.425 86 0 65.194 0 39.569 0 28.319 4.3 17.962 11.481 9.93L6.25-14 27.5-1.856c6.794-3.213 14.456-5 22.5-5 27.575 0 50 20.8 50 46.425S77.575 86 50 86zm25-53.569a7.112 7.112 0 0 0-7.144 7.138c0 3.968 3.175 7.143 7.144 7.143s7.144-3.175 7.144-7.143A7.113 7.113 0 0 0 75 32.43zm-25 0a7.112 7.112 0 0 0-7.144 7.132c0 3.968 3.175 7.143 7.144 7.143s7.144-3.175 7.144-7.144A7.113 7.113 0 0 0 50 32.425zm-25 0a7.112 7.112 0 0 0-7.144 7.132c0 3.968 3.175 7.143 7.144 7.143s7.144-3.175 7.144-7.144A7.113 7.113 0 0 0 25 32.425z"/><glyph glyph-name="bubble-help" unicode="" horiz-adv-x="100" d="M50 86c27.575 0 50-20.806 50-46.431S77.575-6.856 50-6.856a52.569 52.569 0 0 0-22.5 5L6.25-14l5.231 23.931C4.3 17.962 0 28.313 0 39.563 0 65.192 22.419 86 50 86zm-1.788-60.712c-3.968 0-7.143-3.175-7.143-7.144S44.25 11 48.212 11s7.144 3.175 7.144 7.144-3.175 7.144-7.144 7.144zm.957 42.856c-.975 0-2.05-.088-3.125-.181-1.069-.175-2.244-.35-3.313-.625a25.906 25.906 0 0 1-9.769-4.438c-2.925-2.131-4.393-4.8-4.393-8 0-1.781.494-3.2 1.562-4.269 1.075-1.062 2.438-1.6 4.1-1.6a5.412 5.412 0 0 1 3.225.894c.875.625 1.756 1.331 2.538 2.125.194.094.294.275.487.45.1.087.294.356.488.531.975.982 2.15 1.869 3.419 2.669 1.268.8 2.83 1.244 4.78 1.244 1.957 0 3.813-.532 5.376-1.688s2.337-2.581 2.337-4.356c0-2.313-.781-3.913-2.343-4.8a15.7 15.7 0 0 0-5.075-2.044c-.194-.087-.488-.087-.782-.175-.293-.093-.487-.181-.781-.269a20.625 20.625 0 0 1-4.194-1.25c-1.175-.53-1.762-1.418-1.762-2.575v-5.33c0-1.688.587-3.02 1.662-4 1.169-1.063 2.831-1.6 4.981-1.6 2.05 0 3.607.53 4.875 1.6 1.275 1.062 1.857 2.4 1.857 4.18 4.787 1.063 8.593 2.932 11.625 5.594C69.963 42.9 71.43 46.456 71.43 50.9c0 5.419-2.25 9.688-6.644 12.712-4.387 3.02-9.562 4.532-15.618 4.532z"/><glyph glyph-name="bubble-help-1" unicode="bubble-help" horiz-adv-x="100" d="M50 86c27.575 0 50-20.806 50-46.431S77.575-6.856 50-6.856a52.569 52.569 0 0 0-22.5 5L6.25-14l5.231 23.931C4.3 17.962 0 28.313 0 39.563 0 65.192 22.419 86 50 86zm-1.788-60.712c-3.968 0-7.143-3.175-7.143-7.144S44.25 11 48.212 11s7.144 3.175 7.144 7.144-3.175 7.144-7.144 7.144zm.957 42.856c-.975 0-2.05-.088-3.125-.181-1.069-.175-2.244-.35-3.313-.625a25.906 25.906 0 0 1-9.769-4.438c-2.925-2.131-4.393-4.8-4.393-8 0-1.781.494-3.2 1.562-4.269 1.075-1.062 2.438-1.6 4.1-1.6a5.412 5.412 0 0 1 3.225.894c.875.625 1.756 1.331 2.538 2.125.194.094.294.275.487.45.1.087.294.356.488.531.975.982 2.15 1.869 3.419 2.669 1.268.8 2.83 1.244 4.78 1.244 1.957 0 3.813-.532 5.376-1.688s2.337-2.581 2.337-4.356c0-2.313-.781-3.913-2.343-4.8a15.7 15.7 0 0 0-5.075-2.044c-.194-.087-.488-.087-.782-.175-.293-.093-.487-.181-.781-.269a20.625 20.625 0 0 1-4.194-1.25c-1.175-.53-1.762-1.418-1.762-2.575v-5.33c0-1.688.587-3.02 1.662-4 1.169-1.063 2.831-1.6 4.981-1.6 2.05 0 3.607.53 4.875 1.6 1.275 1.062 1.857 2.4 1.857 4.18 4.787 1.063 8.593 2.932 11.625 5.594C69.963 42.9 71.43 46.456 71.43 50.9c0 5.419-2.25 9.688-6.644 12.712-4.387 3.02-9.562 4.532-15.618 4.532z"/><glyph glyph-name="bubble-info" unicode="" horiz-adv-x="100" d="M50 86c27.575 0 50-20.806 50-46.431S77.575-6.856 50-6.856a52.569 52.569 0 0 0-22.5 5L6.25-14l5.231 23.931C4.3 17.962 0 28.313 0 39.563 0 65.192 22.419 86 50 86zm0-42.856l-.781-.044a7.125 7.125 0 0 1-6.363-7.094v-14.3A7.125 7.125 0 0 1 50 14.57l.781.043a7.125 7.125 0 0 1 6.363 7.094v14.3A7.125 7.125 0 0 1 50 43.144zm0 21.419a7.113 7.113 0 0 1-7.144-7.138c0-3.969 3.175-7.144 7.144-7.144s7.144 3.175 7.144 7.144A7.113 7.113 0 0 1 50 64.563z"/><glyph glyph-name="bubble-info-1" unicode="bubble-info" horiz-adv-x="100" d="M50 86c27.575 0 50-20.806 50-46.431S77.575-6.856 50-6.856a52.569 52.569 0 0 0-22.5 5L6.25-14l5.231 23.931C4.3 17.962 0 28.313 0 39.563 0 65.192 22.419 86 50 86zm0-42.856l-.781-.044a7.125 7.125 0 0 1-6.363-7.094v-14.3A7.125 7.125 0 0 1 50 14.57l.781.043a7.125 7.125 0 0 1 6.363 7.094v14.3A7.125 7.125 0 0 1 50 43.144zm0 21.419a7.113 7.113 0 0 1-7.144-7.138c0-3.969 3.175-7.144 7.144-7.144s7.144 3.175 7.144 7.144A7.113 7.113 0 0 1 50 64.563z"/><glyph glyph-name="bubble" unicode="" horiz-adv-x="100" d="M50 86C22.425 86 0 65.194 0 39.569 0 28.319 4.3 17.962 11.481 9.93L6.25-14 27.5-1.856c6.794-3.213 14.456-5 22.5-5 27.575 0 50 20.8 50 46.425S77.575 86 50 86z"/><glyph glyph-name="bubble-1" unicode="bubble" horiz-adv-x="100" d="M50 86C22.425 86 0 65.194 0 39.569 0 28.319 4.3 17.962 11.481 9.93L6.25-14 27.5-1.856c6.794-3.213 14.456-5 22.5-5 27.575 0 50 20.8 50 46.425S77.575 86 50 86z"/><glyph glyph-name="bubbles" unicode="" horiz-adv-x="100" d="M60.263 64.569C82.188 64.569 100 49.337 100 30.58c0-8.237-3.412-15.819-9.125-21.706l4.156-17.519L78.144.25a44.788 44.788 0 0 0-17.875-3.663c-21.925 0-39.744 15.232-39.744 33.994 0 18.563 17.456 33.681 39.063 33.988h.675zM23.325 80.644c9.5 0 17.688-5.063 21.319-12.313-15.188-3.912-26.781-14.587-29.625-27.769l-1.107.4-1.08.457L2.918 36l2.437 10.688A19.313 19.313 0 0 0 0 59.912c0 11.444 10.463 20.732 23.325 20.732z"/><glyph glyph-name="bubbles-1" unicode="bubbles" horiz-adv-x="100" d="M60.263 64.569C82.188 64.569 100 49.337 100 30.58c0-8.237-3.412-15.819-9.125-21.706l4.156-17.519L78.144.25a44.788 44.788 0 0 0-17.875-3.663c-21.925 0-39.744 15.232-39.744 33.994 0 18.563 17.456 33.681 39.063 33.988h.675zM23.325 80.644c9.5 0 17.688-5.063 21.319-12.313-15.188-3.912-26.781-14.587-29.625-27.769l-1.107.4-1.08.457L2.918 36l2.437 10.688A19.313 19.313 0 0 0 0 59.912c0 11.444 10.463 20.732 23.325 20.732z"/><glyph glyph-name="bug" unicode="" horiz-adv-x="100" d="M81.513 69.25c2.937 3.025 7.424 3.3 10.03.625 2.607-2.681 2.338-7.3-.6-10.325l-7.612-7.825V37.437h10c3.688 0 6.669-3.075 6.669-6.862s-2.987-6.856-6.669-6.856H83.17A34.7 34.7 0 0 0 77.806 8.25l9.8-10.081c2.938-3.019 3.207-7.644.607-10.319-2.607-2.681-7.1-2.406-10.038.613l-9.8 10.087a32.669 32.669 0 0 0-11.706-4.994v43.875c0 3.794-2.988 6.863-6.669 6.863-3.688 0-6.669-3.069-6.669-6.856V-6.438A32.669 32.669 0 0 0 31.625-1.45l-9.8-10.087c-2.938-3.02-7.431-3.294-10.037-.613-2.6 2.675-2.332 7.3.606 10.313L22.187 8.25a34.7 34.7 0 0 0-5.362 15.469H6.669C2.98 23.712 0 26.78 0 30.569s2.987 6.869 6.669 6.869h10v14.287L9.056 59.55c-2.931 3.025-3.206 7.644-.6 10.325 2.607 2.675 7.1 2.4 10.032-.625l14.28-14.681h34.463zM50 86c10.85 0 19.644-9.138 19.644-20.406v-1.025H30.356v1.025C30.356 76.863 39.15 86 50 86z"/><glyph glyph-name="bug-1" unicode="bug" horiz-adv-x="100" d="M81.513 69.25c2.937 3.025 7.424 3.3 10.03.625 2.607-2.681 2.338-7.3-.6-10.325l-7.612-7.825V37.437h10c3.688 0 6.669-3.075 6.669-6.862s-2.987-6.856-6.669-6.856H83.17A34.7 34.7 0 0 0 77.806 8.25l9.8-10.081c2.938-3.019 3.207-7.644.607-10.319-2.607-2.681-7.1-2.406-10.038.613l-9.8 10.087a32.669 32.669 0 0 0-11.706-4.994v43.875c0 3.794-2.988 6.863-6.669 6.863-3.688 0-6.669-3.069-6.669-6.856V-6.438A32.669 32.669 0 0 0 31.625-1.45l-9.8-10.087c-2.938-3.02-7.431-3.294-10.037-.613-2.6 2.675-2.332 7.3.606 10.313L22.187 8.25a34.7 34.7 0 0 0-5.362 15.469H6.669C2.98 23.712 0 26.78 0 30.569s2.987 6.869 6.669 6.869h10v14.287L9.056 59.55c-2.931 3.025-3.206 7.644-.6 10.325 2.607 2.675 7.1 2.4 10.032-.625l14.28-14.681h34.463zM50 86c10.85 0 19.644-9.138 19.644-20.406v-1.025H30.356v1.025C30.356 76.863 39.15 86 50 86z"/><glyph glyph-name="bulb" unicode="" horiz-adv-x="100" d="M64.287-3.288v-5.325c0-.73-.806-1.393-1.968-1.662l-11.425-3.656C50.625-14 50.269-14 50-14s-.625 0-.894.063l-11.425 3.662c-1.162.2-1.968.938-1.968 1.662v5.325h28.574zM50 86c21.731 0 39.287-16.313 39.287-36.506 0-16.45-7.018-22.019-14.03-27.232l-1.75-1.306c-5.226-3.918-10.126-8.137-11.732-17.1H38.206c-1.606 8.963-6.5 13.182-11.725 17.1l-1.75 1.306c-7.006 5.213-14.019 10.782-14.019 27.232C10.713 69.68 28.276 86 50 86zM32.144 75.287a7.144 7.144 0 1 1 0-14.287 7.144 7.144 0 0 1 0 14.287z"/><glyph glyph-name="bulb-1" unicode="bulb" horiz-adv-x="100" d="M64.287-3.288v-5.325c0-.73-.806-1.393-1.968-1.662l-11.425-3.656C50.625-14 50.269-14 50-14s-.625 0-.894.063l-11.425 3.662c-1.162.2-1.968.938-1.968 1.662v5.325h28.574zM50 86c21.731 0 39.287-16.313 39.287-36.506 0-16.45-7.018-22.019-14.03-27.232l-1.75-1.306c-5.226-3.918-10.126-8.137-11.732-17.1H38.206c-1.606 8.963-6.5 13.182-11.725 17.1l-1.75 1.306c-7.006 5.213-14.019 10.782-14.019 27.232C10.713 69.68 28.276 86 50 86zM32.144 75.287a7.144 7.144 0 1 1 0-14.287 7.144 7.144 0 0 1 0 14.287z"/><glyph glyph-name="calendar-add" unicode="" horiz-adv-x="100" d="M21.431 64.569l-.018-3.219c0-2.163 1.606-3.931 3.568-3.931 1.963 0 3.569 1.769 3.569 3.931l.019 3.219H71.43l.032-3.263c0-2.156 1.612-3.925 3.575-3.925 1.962 0 3.568 1.769 3.568 3.925l-.037 3.263h10.718c1.963 0 3.57-1.763 3.57-3.925V-10.07c0-2.162-1.607-3.931-3.57-3.931H10.712c-1.962 0-3.568 1.769-3.568 3.931v70.713c0 2.162 1.606 3.925 3.569 3.925h10.725zM50 46.712a3.675 3.675 0 0 1-3.663-3.662v-14.1h-14.1a3.675 3.675 0 0 1-3.668-3.662 3.673 3.673 0 0 1 3.668-3.663h14.1V7.519A3.676 3.676 0 0 1 50 3.856a3.675 3.675 0 0 1 3.663 3.663v14.106h14.1a3.675 3.675 0 0 1 3.668 3.663 3.675 3.675 0 0 1-3.668 3.662h-14.1v14.1A3.675 3.675 0 0 1 50 46.713zM89.287 86a3.58 3.58 0 0 0 3.57-3.569V71.713H78.568v3.575A3.581 3.581 0 0 1 75 78.855a3.581 3.581 0 0 1-3.569-3.569v-3.575H28.563v3.575A3.581 3.581 0 0 1 25 78.857a3.581 3.581 0 0 1-3.569-3.57v-3.575H7.144v10.725A3.578 3.578 0 0 0 10.713 86z"/><glyph glyph-name="calendar-add-1" unicode="calendar-add" horiz-adv-x="100" d="M21.431 64.569l-.018-3.219c0-2.163 1.606-3.931 3.568-3.931 1.963 0 3.569 1.769 3.569 3.931l.019 3.219H71.43l.032-3.263c0-2.156 1.612-3.925 3.575-3.925 1.962 0 3.568 1.769 3.568 3.925l-.037 3.263h10.718c1.963 0 3.57-1.763 3.57-3.925V-10.07c0-2.162-1.607-3.931-3.57-3.931H10.712c-1.962 0-3.568 1.769-3.568 3.931v70.713c0 2.162 1.606 3.925 3.569 3.925h10.725zM50 46.712a3.675 3.675 0 0 1-3.663-3.662v-14.1h-14.1a3.675 3.675 0 0 1-3.668-3.662 3.673 3.673 0 0 1 3.668-3.663h14.1V7.519A3.676 3.676 0 0 1 50 3.856a3.675 3.675 0 0 1 3.663 3.663v14.106h14.1a3.675 3.675 0 0 1 3.668 3.663 3.675 3.675 0 0 1-3.668 3.662h-14.1v14.1A3.675 3.675 0 0 1 50 46.713zM89.287 86a3.58 3.58 0 0 0 3.57-3.569V71.713H78.568v3.575A3.581 3.581 0 0 1 75 78.855a3.581 3.581 0 0 1-3.569-3.569v-3.575H28.563v3.575A3.581 3.581 0 0 1 25 78.857a3.581 3.581 0 0 1-3.569-3.57v-3.575H7.144v10.725A3.578 3.578 0 0 0 10.713 86z"/><glyph glyph-name="calendar-check" unicode="" horiz-adv-x="100" d="M78.569 64.569l.037-3.263c0-2.156-1.606-3.925-3.569-3.925-1.962 0-3.575 1.769-3.575 3.925l-.03 3.263h-42.87l-.018-3.219c0-2.163-1.607-3.931-3.569-3.931-1.963 0-3.569 1.769-3.569 3.931l.019 3.219H10.712c-1.962 0-3.568-1.763-3.568-3.925V-10.07C7.144-12.23 8.75-14 10.713-14h78.574c1.963 0 3.57 1.769 3.57 3.931v70.713c0 2.162-1.607 3.925-3.57 3.925H78.563zM74.106 42.25c1.25-1.519 1.25-3.837-.175-5.181L45.356 8.5a3.525 3.525 0 0 0-2.5-1.069c-.175 0-.356 0-.537.088A3.294 3.294 0 0 0 39.73 9.48L32.587 23.77a3.581 3.581 0 0 0 1.607 4.819 3.581 3.581 0 0 0 4.825-1.607l4.912-9.819L69.02 42.25a3.563 3.563 0 0 0 5.087 0zM89.287 86a3.58 3.58 0 0 0 3.57-3.569V71.713H78.568v3.575A3.581 3.581 0 0 1 75 78.855a3.581 3.581 0 0 1-3.569-3.569v-3.575H28.563v3.575A3.581 3.581 0 0 1 25 78.857a3.581 3.581 0 0 1-3.569-3.57v-3.575H7.144v10.725A3.578 3.578 0 0 0 10.713 86z"/><glyph glyph-name="calendar-check-1" unicode="calendar-check" horiz-adv-x="100" d="M78.569 64.569l.037-3.263c0-2.156-1.606-3.925-3.569-3.925-1.962 0-3.575 1.769-3.575 3.925l-.03 3.263h-42.87l-.018-3.219c0-2.163-1.607-3.931-3.569-3.931-1.963 0-3.569 1.769-3.569 3.931l.019 3.219H10.712c-1.962 0-3.568-1.763-3.568-3.925V-10.07C7.144-12.23 8.75-14 10.713-14h78.574c1.963 0 3.57 1.769 3.57 3.931v70.713c0 2.162-1.607 3.925-3.57 3.925H78.563zM74.106 42.25c1.25-1.519 1.25-3.837-.175-5.181L45.356 8.5a3.525 3.525 0 0 0-2.5-1.069c-.175 0-.356 0-.537.088A3.294 3.294 0 0 0 39.73 9.48L32.587 23.77a3.581 3.581 0 0 0 1.607 4.819 3.581 3.581 0 0 0 4.825-1.607l4.912-9.819L69.02 42.25a3.563 3.563 0 0 0 5.087 0zM89.287 86a3.58 3.58 0 0 0 3.57-3.569V71.713H78.568v3.575A3.581 3.581 0 0 1 75 78.855a3.581 3.581 0 0 1-3.569-3.569v-3.575H28.563v3.575A3.581 3.581 0 0 1 25 78.857a3.581 3.581 0 0 1-3.569-3.57v-3.575H7.144v10.725A3.578 3.578 0 0 0 10.713 86z"/><glyph glyph-name="calendar" unicode="" horiz-adv-x="100" d="M21.431 64.569l-.018-3.219c0-2.163 1.606-3.931 3.568-3.931 1.963 0 3.569 1.769 3.569 3.931l.019 3.219H71.43l.032-3.263c0-2.156 1.612-3.925 3.575-3.925 1.962 0 3.568 1.769 3.568 3.925l-.037 3.263h10.718c1.963 0 3.57-1.763 3.57-3.925V-10.07c0-2.162-1.607-3.931-3.57-3.931H10.712c-1.962 0-3.568 1.769-3.568 3.931v70.713c0 2.162 1.606 3.925 3.569 3.925h10.725zM89.287 86a3.58 3.58 0 0 0 3.57-3.569V71.713H78.568v3.575A3.581 3.581 0 0 1 75 78.855a3.581 3.581 0 0 1-3.569-3.569v-3.575H28.563v3.575A3.581 3.581 0 0 1 25 78.857a3.581 3.581 0 0 1-3.569-3.57v-3.575H7.144v10.725A3.578 3.578 0 0 0 10.713 86z"/><glyph glyph-name="calendar-1" unicode="calendar" horiz-adv-x="100" d="M21.431 64.569l-.018-3.219c0-2.163 1.606-3.931 3.568-3.931 1.963 0 3.569 1.769 3.569 3.931l.019 3.219H71.43l.032-3.263c0-2.156 1.612-3.925 3.575-3.925 1.962 0 3.568 1.769 3.568 3.925l-.037 3.263h10.718c1.963 0 3.57-1.763 3.57-3.925V-10.07c0-2.162-1.607-3.931-3.57-3.931H10.712c-1.962 0-3.568 1.769-3.568 3.931v70.713c0 2.162 1.606 3.925 3.569 3.925h10.725zM89.287 86a3.58 3.58 0 0 0 3.57-3.569V71.713H78.568v3.575A3.581 3.581 0 0 1 75 78.855a3.581 3.581 0 0 1-3.569-3.569v-3.575H28.563v3.575A3.581 3.581 0 0 1 25 78.857a3.581 3.581 0 0 1-3.569-3.57v-3.575H7.144v10.725A3.578 3.578 0 0 0 10.713 86z"/><glyph glyph-name="camera-add" unicode="" horiz-adv-x="100" d="M64.194 78.856c2.769 0 5.181-1.518 6.431-3.925l2.494-5h-5.263V52.063l14.282.006V37.78H100l-.006 14.288H100V.28c0-3.669-2.8-6.712-6.369-7.1l-.775-.043H7.144A7.162 7.162 0 0 0 0 .288V57.43c0 3.925 3.212 7.132 7.144 7.132h16.875l5.169 10.374c1.25 2.407 3.75 3.925 6.43 3.925zM50 50.288a21.375 21.375 0 0 1-21.431-21.432A21.375 21.375 0 0 1 50 7.437a21.375 21.375 0 0 1 21.431 21.425A21.375 21.375 0 0 1 50 50.288zm44.644 28.568l-.007-14.281h14.294v-7.144H94.638V43.144H87.5V57.43H73.213v7.132l14.287.012v14.281h7.144z"/><glyph glyph-name="camera-add-1" unicode="camera-add" horiz-adv-x="100" d="M64.194 78.856c2.769 0 5.181-1.518 6.431-3.925l2.494-5h-5.263V52.063l14.282.006V37.78H100l-.006 14.288H100V.28c0-3.669-2.8-6.712-6.369-7.1l-.775-.043H7.144A7.162 7.162 0 0 0 0 .288V57.43c0 3.925 3.212 7.132 7.144 7.132h16.875l5.169 10.374c1.25 2.407 3.75 3.925 6.43 3.925zM50 50.288a21.375 21.375 0 0 1-21.431-21.432A21.375 21.375 0 0 1 50 7.437a21.375 21.375 0 0 1 21.431 21.425A21.375 21.375 0 0 1 50 50.288zm44.644 28.568l-.007-14.281h14.294v-7.144H94.638V43.144H87.5V57.43H73.213v7.132l14.287.012v14.281h7.144z"/><glyph glyph-name="camera" unicode="" horiz-adv-x="100" d="M50 7.431a21.375 21.375 0 0 0-21.431 21.425A21.375 21.375 0 0 0 50 50.287a21.375 21.375 0 0 0 21.431-21.43A21.375 21.375 0 0 0 50 7.436m42.856 57.138H75.813l-5.188 10.362a7.175 7.175 0 0 1-6.431 3.925H35.625c-2.681 0-5.181-1.518-6.431-3.924l-5.175-10.376H7.144C3.212 64.57 0 61.356 0 57.438V.294C0-3.638 3.212-6.85 7.144-6.85h85.712C96.787-6.85 100-3.638 100 .294V57.43c0 3.925-3.213 7.138-7.144 7.138"/><glyph glyph-name="camera-1" unicode="camera" horiz-adv-x="100" d="M50 7.431a21.375 21.375 0 0 0-21.431 21.425A21.375 21.375 0 0 0 50 50.287a21.375 21.375 0 0 0 21.431-21.43A21.375 21.375 0 0 0 50 7.436m42.856 57.138H75.813l-5.188 10.362a7.175 7.175 0 0 1-6.431 3.925H35.625c-2.681 0-5.181-1.518-6.431-3.924l-5.175-10.376H7.144C3.212 64.57 0 61.356 0 57.438V.294C0-3.638 3.212-6.85 7.144-6.85h85.712C96.787-6.85 100-3.638 100 .294V57.43c0 3.925-3.213 7.138-7.144 7.138"/><glyph glyph-name="center-x" unicode="" horiz-adv-x="100" d="M96.431 86C98.4 86 100 84.4 100 82.431v-92.868a3.569 3.569 0 0 0-7.144 0v92.874c0 1.97 1.6 3.57 3.575 3.57zM3.563 86c1.974 0 3.575-1.6 3.575-3.569v-92.868a3.569 3.569 0 1 0-7.144 0v92.874A3.58 3.58 0 0 0 3.569 86zm67.874-28.569V45.813h-1.25c-.718 2.68-1.612 4.643-2.5 5.806a9.369 9.369 0 0 1-3.75 2.769c-.893.356-2.412.537-4.643.537h-3.575V21.888c0-2.232.181-3.576.45-4.107.269-.537.8-.981 1.606-1.431.8-.444 1.875-.625 3.212-.625h1.607v-1.162h-25v1.162H39.2c1.344 0 2.5.181 3.306.625a2.975 2.975 0 0 1 1.431 1.519c.263.537.357 1.875.357 4.018v33.044h-3.481c-3.22 0-5.538-.625-6.97-1.875-2.05-1.7-3.3-4.2-3.924-7.237h-1.357v11.618h42.863z"/><glyph glyph-name="center-x-1" unicode="center-x" horiz-adv-x="100" d="M96.431 86C98.4 86 100 84.4 100 82.431v-92.868a3.569 3.569 0 0 0-7.144 0v92.874c0 1.97 1.6 3.57 3.575 3.57zM3.563 86c1.974 0 3.575-1.6 3.575-3.569v-92.868a3.569 3.569 0 1 0-7.144 0v92.874A3.58 3.58 0 0 0 3.569 86zm67.874-28.569V45.813h-1.25c-.718 2.68-1.612 4.643-2.5 5.806a9.369 9.369 0 0 1-3.75 2.769c-.893.356-2.412.537-4.643.537h-3.575V21.888c0-2.232.181-3.576.45-4.107.269-.537.8-.981 1.606-1.431.8-.444 1.875-.625 3.212-.625h1.607v-1.162h-25v1.162H39.2c1.344 0 2.5.181 3.306.625a2.975 2.975 0 0 1 1.431 1.519c.263.537.357 1.875.357 4.018v33.044h-3.481c-3.22 0-5.538-.625-6.97-1.875-2.05-1.7-3.3-4.2-3.924-7.237h-1.357v11.618h42.863z"/><glyph glyph-name="center-y" unicode="" horiz-adv-x="100" d="M96.431-6.856a3.569 3.569 0 1 0 0-7.144H3.563a3.569 3.569 0 0 0 0 7.144h92.874zm-25 64.287V45.813h-1.25c-.718 2.68-1.612 4.643-2.5 5.806a9.369 9.369 0 0 1-3.75 2.769c-.893.356-2.412.537-4.643.537h-3.575V21.888c0-2.232.18-3.576.45-4.107.268-.537.8-.981 1.606-1.431.8-.444 1.875-.625 3.212-.625h1.606v-1.162h-25v1.162h1.607c1.343 0 2.5.181 3.306.625a2.975 2.975 0 0 1 1.431 1.519c.263.537.357 1.875.357 4.018v33.044h-3.482c-3.218 0-5.537-.625-6.968-1.875-2.05-1.7-3.3-4.2-3.925-7.237h-1.35v11.618h42.862zm25 28.569a3.569 3.569 0 1 0 0-7.144H3.563A3.569 3.569 0 1 0 3.568 86h92.869z"/><glyph glyph-name="center-y-1" unicode="center-y" horiz-adv-x="100" d="M96.431-6.856a3.569 3.569 0 1 0 0-7.144H3.563a3.569 3.569 0 0 0 0 7.144h92.874zm-25 64.287V45.813h-1.25c-.718 2.68-1.612 4.643-2.5 5.806a9.369 9.369 0 0 1-3.75 2.769c-.893.356-2.412.537-4.643.537h-3.575V21.888c0-2.232.18-3.576.45-4.107.268-.537.8-.981 1.606-1.431.8-.444 1.875-.625 3.212-.625h1.606v-1.162h-25v1.162h1.607c1.343 0 2.5.181 3.306.625a2.975 2.975 0 0 1 1.431 1.519c.263.537.357 1.875.357 4.018v33.044h-3.482c-3.218 0-5.537-.625-6.968-1.875-2.05-1.7-3.3-4.2-3.925-7.237h-1.35v11.618h42.862zm25 28.569a3.569 3.569 0 1 0 0-7.144H3.563A3.569 3.569 0 1 0 3.568 86h92.869z"/><glyph glyph-name="chart-10" unicode="" horiz-adv-x="100" d="M3.563 79.369a.969.969 0 0 0 1.55-.019c1.95-2.688 7.287-9.563 9.687-12.65.487-.625.031-1.531-.769-1.531H7.92V-.456H100V-7.75H.831v72.919H-5.28a.956.956 0 0 0-.782 1.519zm62.35-41.244c5.112 0 9.293-4.306 9.293-9.563V20.05c0-5.263-4.187-9.569-9.294-9.569-5.112 0-9.3 4.306-9.3 9.563v8.518c0 5.263 4.188 9.57 9.3 9.57zm5.162 19.144L38.019 14.73h-8.263L62.812 57.27h8.263zM65.912 31.75a3.188 3.188 0 0 1-3.1-3.188V20.05c0-1.731 1.42-3.188 3.1-3.188a3.188 3.188 0 0 1 3.1 3.188v8.506a3.188 3.188 0 0 1-3.1 3.188zM34.92 61.519c5.119 0 9.3-4.306 9.3-9.569v-8.506c0-5.263-4.188-9.569-9.3-9.569s-9.294 4.306-9.294 9.563v8.512c0 5.262 4.188 9.569 9.294 9.569zm0-6.375a3.188 3.188 0 0 1-3.094-3.194v-8.506c0-1.732 1.419-3.188 3.094-3.188a3.188 3.188 0 0 1 3.1 3.188v8.506a3.188 3.188 0 0 1-3.1 3.188z"/><glyph glyph-name="chart-10-1" unicode="chart-10" horiz-adv-x="100" d="M3.563 79.369a.969.969 0 0 0 1.55-.019c1.95-2.688 7.287-9.563 9.687-12.65.487-.625.031-1.531-.769-1.531H7.92V-.456H100V-7.75H.831v72.919H-5.28a.956.956 0 0 0-.782 1.519zm62.35-41.244c5.112 0 9.293-4.306 9.293-9.563V20.05c0-5.263-4.187-9.569-9.294-9.569-5.112 0-9.3 4.306-9.3 9.563v8.518c0 5.263 4.188 9.57 9.3 9.57zm5.162 19.144L38.019 14.73h-8.263L62.812 57.27h8.263zM65.912 31.75a3.188 3.188 0 0 1-3.1-3.188V20.05c0-1.731 1.42-3.188 3.1-3.188a3.188 3.188 0 0 1 3.1 3.188v8.506a3.188 3.188 0 0 1-3.1 3.188zM34.92 61.519c5.119 0 9.3-4.306 9.3-9.569v-8.506c0-5.263-4.188-9.569-9.3-9.569s-9.294 4.306-9.294 9.563v8.512c0 5.262 4.188 9.569 9.294 9.569zm0-6.375a3.188 3.188 0 0 1-3.094-3.194v-8.506c0-1.732 1.419-3.188 3.094-3.188a3.188 3.188 0 0 1 3.1 3.188v8.506a3.188 3.188 0 0 1-3.1 3.188z"/><glyph glyph-name="chart-11" unicode="" horiz-adv-x="100" d="M100 14.569V-3.288a3.581 3.581 0 0 0-3.569-3.568H3.563A3.581 3.581 0 0 0 0-3.288V14.57h100zm-3.569 64.287A3.58 3.58 0 0 0 100 75.287V18.144H32.144v60.712zM28.563 46.713v-28.57H0v28.57h28.569zm0 32.143V50.288H0v25a3.58 3.58 0 0 0 3.569 3.568h25z"/><glyph glyph-name="chart-11-1" unicode="chart-11" horiz-adv-x="100" d="M100 14.569V-3.288a3.581 3.581 0 0 0-3.569-3.568H3.563A3.581 3.581 0 0 0 0-3.288V14.57h100zm-3.569 64.287A3.58 3.58 0 0 0 100 75.287V18.144H32.144v60.712zM28.563 46.713v-28.57H0v28.57h28.569zm0 32.143V50.288H0v25a3.58 3.58 0 0 0 3.569 3.568h25z"/><glyph glyph-name="chart-12" unicode="" horiz-adv-x="100" d="M7.144 79.75V1.181H100v-7.144H0V79.75h7.144zm32.144-42.856a10.713 10.713 0 1 0 0-21.431 10.713 10.713 0 0 0 0 21.43zm46.425-7.144a7.144 7.144 0 1 0 0-14.287 7.144 7.144 0 0 0 0 14.287zM64.288 65.463a14.287 14.287 0 1 0 0-28.57 14.287 14.287 0 0 0 0 28.57zM21.43 51.188a7.144 7.144 0 1 0 0-14.288 7.144 7.144 0 0 0 0 14.288z"/><glyph glyph-name="chart-12-1" unicode="chart-12" horiz-adv-x="100" d="M7.144 79.75V1.181H100v-7.144H0V79.75h7.144zm32.144-42.856a10.713 10.713 0 1 0 0-21.431 10.713 10.713 0 0 0 0 21.43zm46.425-7.144a7.144 7.144 0 1 0 0-14.287 7.144 7.144 0 0 0 0 14.287zM64.288 65.463a14.287 14.287 0 1 0 0-28.57 14.287 14.287 0 0 0 0 28.57zM21.43 51.188a7.144 7.144 0 1 0 0-14.288 7.144 7.144 0 0 0 0 14.288z"/><glyph glyph-name="chart-13" unicode="" horiz-adv-x="100" d="M42.856 85.481V28.856h56.625C96.013 4.644 75.17-14 50-14 22.413-14 0 8.413 0 36c0 25.163 18.644 46.013 42.856 49.481zM50 86c27.588 0 50-22.413 50-50H50z"/><glyph glyph-name="chart-13-1" unicode="chart-13" horiz-adv-x="100" d="M42.856 85.481V28.856h56.625C96.013 4.644 75.17-14 50-14 22.413-14 0 8.413 0 36c0 25.163 18.644 46.013 42.856 49.481zM50 86c27.588 0 50-22.413 50-50H50z"/><glyph glyph-name="chart-14" unicode="" horiz-adv-x="100" d="M42.775 30.438l-23.5-33.725-29.994 30.537L1.375 39.481l15.669-15.956L40.2 56.75l22.125-21.225 35.787 39.762 12.6-11.687-47.487-52.781z"/><glyph glyph-name="chart-14-1" unicode="chart-14" horiz-adv-x="100" d="M42.775 30.438l-23.5-33.725-29.994 30.537L1.375 39.481l15.669-15.956L40.2 56.75l22.125-21.225 35.787 39.762 12.6-11.687-47.487-52.781z"/><glyph glyph-name="chart-15" unicode="" horiz-adv-x="100" d="M30.356 28.856a16.063 16.063 0 0 0 16.075-16.069A16.063 16.063 0 0 0 30.356-3.288a16.063 16.063 0 0 0-16.069 16.076 16.063 16.063 0 0 0 16.07 16.068zM100 36a10.713 10.713 0 1 0 .013-21.419A10.713 10.713 0 0 0 100 36zM-3.569 43.144a7.138 7.138 0 1 0 0-14.281 7.138 7.138 0 0 0 0 14.28zm60.713 32.143a21.419 21.419 0 0 0 21.425-21.43 21.419 21.419 0 0 0-21.425-21.42 21.419 21.419 0 0 0-21.431 21.425 21.419 21.419 0 0 0 21.43 21.432z"/><glyph glyph-name="chart-15-1" unicode="chart-15" horiz-adv-x="100" d="M30.356 28.856a16.063 16.063 0 0 0 16.075-16.069A16.063 16.063 0 0 0 30.356-3.288a16.063 16.063 0 0 0-16.069 16.076 16.063 16.063 0 0 0 16.07 16.068zM100 36a10.713 10.713 0 1 0 .013-21.419A10.713 10.713 0 0 0 100 36zM-3.569 43.144a7.138 7.138 0 1 0 0-14.281 7.138 7.138 0 0 0 0 14.28zm60.713 32.143a21.419 21.419 0 0 0 21.425-21.43 21.419 21.419 0 0 0-21.425-21.42 21.419 21.419 0 0 0-21.431 21.425 21.419 21.419 0 0 0 21.43 21.432z"/><glyph glyph-name="chart-16" unicode="" horiz-adv-x="100" d="M55.356 86V41.362H100V30.644H55.356V-14H44.644l-.006 44.644H0v10.712l44.638.006V86h10.718zm26.788-67.856a14.287 14.287 0 1 0 0-28.575 14.287 14.287 0 0 0 0 28.575zm-75-10.713a7.144 7.144 0 1 0 0-14.287 7.144 7.144 0 0 0 0 14.287zm21.425 14.281a7.144 7.144 0 1 0 0-14.28 7.144 7.144 0 0 0 0 14.28zm50 46.432a7.144 7.144 0 1 0 0-14.288 7.144 7.144 0 0 0 0 14.288zM17.856 78.856a10.713 10.713 0 1 0 0-21.425 10.713 10.713 0 0 0 0 21.425z"/><glyph glyph-name="chart-16-1" unicode="chart-16" horiz-adv-x="100" d="M55.356 86V41.362H100V30.644H55.356V-14H44.644l-.006 44.644H0v10.712l44.638.006V86h10.718zm26.788-67.856a14.287 14.287 0 1 0 0-28.575 14.287 14.287 0 0 0 0 28.575zm-75-10.713a7.144 7.144 0 1 0 0-14.287 7.144 7.144 0 0 0 0 14.287zm21.425 14.281a7.144 7.144 0 1 0 0-14.28 7.144 7.144 0 0 0 0 14.28zm50 46.432a7.144 7.144 0 1 0 0-14.288 7.144 7.144 0 0 0 0 14.288zM17.856 78.856a10.713 10.713 0 1 0 0-21.425 10.713 10.713 0 0 0 0 21.425z"/><glyph glyph-name="chart-17" unicode="" horiz-adv-x="100" d="M93.75 79.75v-87.5h-6.731v87.5h6.731zm-11.781 0v-87.5H65.144v87.5h16.825zm-21.875 0v-87.5H38.219v87.5h21.875zm-26.919 0v-87.5H6.25v87.5h26.925z"/><glyph glyph-name="chart-17-1" unicode="chart-17" horiz-adv-x="100" d="M93.75 79.75v-87.5h-6.731v87.5h6.731zm-11.781 0v-87.5H65.144v87.5h16.825zm-21.875 0v-87.5H38.219v87.5h21.875zm-26.919 0v-87.5H6.25v87.5h26.925z"/><glyph glyph-name="chart-18" unicode="" horiz-adv-x="100" d="M29.781 86c7.107 0 12.869-5.8 12.869-12.963 0-3.868-1.681-7.337-4.344-9.712l19.125-51.4.844-.031a12.506 12.506 0 0 0 2.744-.5l27.65 36.331a12.981 12.981 0 0 0-1.906 6.794c0 7.162 5.756 12.962 12.874 12.962 7.107 0 12.863-5.8 12.863-12.962a12.912 12.912 0 0 0-16.531-12.431L68.319 5.755c1.206-1.975 1.9-4.3 1.9-6.793A12.912 12.912 0 0 0 57.35-14 12.912 12.912 0 0 0 44.487-1.037c0 3.868 1.675 7.337 4.338 9.712L29.687 60.081l-.83.025a12.762 12.762 0 0 0-2.438.413L11.162 39.362a12.97 12.97 0 0 0 2.075-7.062A12.912 12.912 0 0 0 .364 19.331 12.912 12.912 0 0 0-12.5 32.294 12.912 12.912 0 0 0 3.725 44.813l15.263 21.156a12.975 12.975 0 0 0-2.075 7.062C16.913 80.206 22.663 86 29.78 86z"/><glyph glyph-name="chart-18-1" unicode="chart-18" horiz-adv-x="100" d="M29.781 86c7.107 0 12.869-5.8 12.869-12.963 0-3.868-1.681-7.337-4.344-9.712l19.125-51.4.844-.031a12.506 12.506 0 0 0 2.744-.5l27.65 36.331a12.981 12.981 0 0 0-1.906 6.794c0 7.162 5.756 12.962 12.874 12.962 7.107 0 12.863-5.8 12.863-12.962a12.912 12.912 0 0 0-16.531-12.431L68.319 5.755c1.206-1.975 1.9-4.3 1.9-6.793A12.912 12.912 0 0 0 57.35-14 12.912 12.912 0 0 0 44.487-1.037c0 3.868 1.675 7.337 4.338 9.712L29.687 60.081l-.83.025a12.762 12.762 0 0 0-2.438.413L11.162 39.362a12.97 12.97 0 0 0 2.075-7.062A12.912 12.912 0 0 0 .364 19.331 12.912 12.912 0 0 0-12.5 32.294 12.912 12.912 0 0 0 3.725 44.813l15.263 21.156a12.975 12.975 0 0 0-2.075 7.062C16.913 80.206 22.663 86 29.78 86z"/><glyph glyph-name="chart-19" unicode="" horiz-adv-x="100" d="M89.094 86C95.119 86 100 81.206 100 75.287c0-5.925-4.875-10.718-10.906-10.718-1.344 0-2.625.237-3.813.675L70.45 50.68a16.656 16.656 0 0 0 2.275-8.431c0-3.206-.9-6.2-2.469-8.75l14.244-14a9.047 9.047 0 0 0 2.775.431c5.019 0 9.087-4 9.087-8.931 0-4.938-4.062-8.931-9.087-8.931-5.025 0-9.094 4-9.094 8.931 0 .644.069 1.275.2 1.875l-14.706 14.45a17.302 17.302 0 0 0-3.669-1.444V8.32c4.269-1.75 7.269-5.882 7.269-10.713C67.275-8.806 61.987-14 55.456-14S43.637-8.812 43.637-2.394c0 4.832 3 8.975 7.276 10.719l-.007 17.556a17.344 17.344 0 0 0-4.037 1.644L23.206 4.288c.282-.988.431-2.032.431-3.107 0-6.418-5.287-11.612-11.818-11.612S0-5.238 0 1.187C0 7.6 5.287 12.794 11.813 12.794c2.08 0 4.024-.525 5.718-1.444l22.913 22.5a16.663 16.663 0 0 0-2.257 8.4c0 2.925.75 5.675 2.076 8.075L29.188 61.2a9.237 9.237 0 0 0-1.913-.2c-5.025 0-9.094 4-9.094 8.931s4.063 8.925 9.094 8.925c5.019 0 9.087-3.993 9.087-8.925 0-.95-.15-1.868-.43-2.725l10.612-10.419a17.438 17.438 0 0 0 8.912 2.425 17.43 17.43 0 0 0 8.55-2.218l14.85 14.575a10.531 10.531 0 0 0-.675 3.718C78.188 81.207 83.063 86 89.094 86z"/><glyph glyph-name="chart-19-1" unicode="chart-19" horiz-adv-x="100" d="M89.094 86C95.119 86 100 81.206 100 75.287c0-5.925-4.875-10.718-10.906-10.718-1.344 0-2.625.237-3.813.675L70.45 50.68a16.656 16.656 0 0 0 2.275-8.431c0-3.206-.9-6.2-2.469-8.75l14.244-14a9.047 9.047 0 0 0 2.775.431c5.019 0 9.087-4 9.087-8.931 0-4.938-4.062-8.931-9.087-8.931-5.025 0-9.094 4-9.094 8.931 0 .644.069 1.275.2 1.875l-14.706 14.45a17.302 17.302 0 0 0-3.669-1.444V8.32c4.269-1.75 7.269-5.882 7.269-10.713C67.275-8.806 61.987-14 55.456-14S43.637-8.812 43.637-2.394c0 4.832 3 8.975 7.276 10.719l-.007 17.556a17.344 17.344 0 0 0-4.037 1.644L23.206 4.288c.282-.988.431-2.032.431-3.107 0-6.418-5.287-11.612-11.818-11.612S0-5.238 0 1.187C0 7.6 5.287 12.794 11.813 12.794c2.08 0 4.024-.525 5.718-1.444l22.913 22.5a16.663 16.663 0 0 0-2.257 8.4c0 2.925.75 5.675 2.076 8.075L29.188 61.2a9.237 9.237 0 0 0-1.913-.2c-5.025 0-9.094 4-9.094 8.931s4.063 8.925 9.094 8.925c5.019 0 9.087-3.993 9.087-8.925 0-.95-.15-1.868-.43-2.725l10.612-10.419a17.438 17.438 0 0 0 8.912 2.425 17.43 17.43 0 0 0 8.55-2.218l14.85 14.575a10.531 10.531 0 0 0-.675 3.718C78.188 81.207 83.063 86 89.094 86z"/><glyph glyph-name="chart-2" unicode="" horiz-adv-x="100" d="M7.144 78.856V.287H100v-7.143H0v85.712h7.144zM92.856 64.57V7.43H14.287V36L28.57 21.712 50 43.144 64.287 36l28.57 28.569z"/><glyph glyph-name="chart-2-1" unicode="chart-2" horiz-adv-x="100" d="M7.144 78.856V.287H100v-7.143H0v85.712h7.144zM92.856 64.57V7.43H14.287V36L28.57 21.712 50 43.144 64.287 36l28.57 28.569z"/><glyph glyph-name="chart-3" unicode="" horiz-adv-x="100" d="M7.144 78.856V.287H100v-7.143H0v85.712h7.144zm7.143-57.143L28.563 7.436H14.287V21.72zm78.57 28.575V7.43H28.568L50 28.856l14.287-7.144 28.57 28.576zm0 28.568V57.438l-28.57-28.576L50 36 28.562 14.562 14.287 28.857v21.431L28.563 36 50 57.431l14.287-7.143 28.57 28.568z"/><glyph glyph-name="chart-3-1" unicode="chart-3" horiz-adv-x="100" d="M7.144 78.856V.287H100v-7.143H0v85.712h7.144zm7.143-57.143L28.563 7.436H14.287V21.72zm78.57 28.575V7.43H28.568L50 28.856l14.287-7.144 28.57 28.576zm0 28.568V57.438l-28.57-28.576L50 36 28.562 14.562 14.287 28.857v21.431L28.563 36 50 57.431l14.287-7.143 28.57 28.568z"/><glyph glyph-name="chart-4" unicode="" horiz-adv-x="100" d="M96.431 78.856A3.58 3.58 0 0 0 100 75.287V-3.288a3.581 3.581 0 0 0-3.569-3.568H3.563A3.581 3.581 0 0 0 0-3.288v78.575a3.58 3.58 0 0 0 3.569 3.57zm-3.575-7.143H7.144V.288h85.712v71.425zm-7.143-14.275v-50H14.288v21.418l14.28-14.287L42.857 36l14.288-7.144 28.569 28.575z"/><glyph glyph-name="chart-4-1" unicode="chart-4" horiz-adv-x="100" d="M96.431 78.856A3.58 3.58 0 0 0 100 75.287V-3.288a3.581 3.581 0 0 0-3.569-3.568H3.563A3.581 3.581 0 0 0 0-3.288v78.575a3.58 3.58 0 0 0 3.569 3.57zm-3.575-7.143H7.144V.288h85.712v71.425zm-7.143-14.275v-50H14.288v21.418l14.28-14.287L42.857 36l14.288-7.144 28.569 28.575z"/><glyph glyph-name="chart-5" unicode="" horiz-adv-x="100" d="M96.431 78.856A3.58 3.58 0 0 0 100 75.287V-3.288a3.581 3.581 0 0 0-3.569-3.568H3.563A3.581 3.581 0 0 0 0-3.288v78.575a3.58 3.58 0 0 0 3.569 3.57zm-3.575-7.143H7.144V.288h85.712v71.425zM21.438 32.788V7.43h-7.15v25.357h7.143zm21.418 31.775V7.425H28.57v57.138h14.287zm21.431-12.675V7.425H50v44.469h14.287zm21.425-12.682V7.425H71.438v31.787H85.72z"/><glyph glyph-name="chart-5-1" unicode="chart-5" horiz-adv-x="100" d="M96.431 78.856A3.58 3.58 0 0 0 100 75.287V-3.288a3.581 3.581 0 0 0-3.569-3.568H3.563A3.581 3.581 0 0 0 0-3.288v78.575a3.58 3.58 0 0 0 3.569 3.57zm-3.575-7.143H7.144V.288h85.712v71.425zM21.438 32.788V7.43h-7.15v25.357h7.143zm21.418 31.775V7.425H28.57v57.138h14.287zm21.431-12.675V7.425H50v44.469h14.287zm21.425-12.682V7.425H71.438v31.787H85.72z"/><glyph glyph-name="chart-6" unicode="" horiz-adv-x="100" d="M14.287 57.431V.288H0V57.43h14.287zm28.57-28.575V.287H28.568v28.57h14.287zM71.43 43.144V.288H57.144v42.856H71.43zm28.563 28.569V.288H85.713v71.425H100z"/><glyph glyph-name="chart-6-1" unicode="chart-6" horiz-adv-x="100" d="M14.287 57.431V.288H0V57.43h14.287zm28.57-28.575V.287H28.568v28.57h14.287zM71.43 43.144V.288H57.144v42.856H71.43zm28.563 28.569V.288H85.713v71.425H100z"/><glyph glyph-name="chart-7" unicode="" horiz-adv-x="100" d="M50 14.569V3.856H0V14.57h50zm50 17.862V21.713H0v10.724h100zM75 50.288V39.563H0v10.724h75zm25 17.856V57.43H0v10.713h100z"/><glyph glyph-name="chart-7-1" unicode="chart-7" horiz-adv-x="100" d="M50 14.569V3.856H0V14.57h50zm50 17.862V21.713H0v10.724h100zM75 50.288V39.563H0v10.724h75zm25 17.856V57.43H0v10.713h100z"/><glyph glyph-name="chart-8" unicode="" horiz-adv-x="100" d="M7.144 78.856V.287H100v-7.143H0v85.712h7.144zm85.712-10.712V53.856L64.287 25.287 50 39.564 28.569 11 14.288 25.288v14.274l14.274-14.274L50 53.856 64.287 39.57l28.57 28.575z"/><glyph glyph-name="chart-8-1" unicode="chart-8" horiz-adv-x="100" d="M7.144 78.856V.287H100v-7.143H0v85.712h7.144zm85.712-10.712V53.856L64.287 25.287 50 39.564 28.569 11 14.288 25.288v14.274l14.274-14.274L50 53.856 64.287 39.57l28.57 28.575z"/><glyph glyph-name="chart-9" unicode="" horiz-adv-x="100" d="M96.431 78.856A3.58 3.58 0 0 0 100 75.287V-3.288a3.581 3.581 0 0 0-3.569-3.568H3.563A3.581 3.581 0 0 0 0-3.288v78.575a3.58 3.58 0 0 0 3.569 3.57zM92.856 14.57H7.144V.287h85.712v14.275zm0 21.431H7.144V21.712h85.712V36zm0 21.431H7.144V43.144h85.712V57.43z"/><glyph glyph-name="chart-9-1" unicode="chart-9" horiz-adv-x="100" d="M96.431 78.856A3.58 3.58 0 0 0 100 75.287V-3.288a3.581 3.581 0 0 0-3.569-3.568H3.563A3.581 3.581 0 0 0 0-3.288v78.575a3.58 3.58 0 0 0 3.569 3.57zM92.856 14.57H7.144V.287h85.712v14.275zm0 21.431H7.144V21.712h85.712V36zm0 21.431H7.144V43.144h85.712V57.43z"/><glyph glyph-name="chart-pareto" unicode="" horiz-adv-x="100" d="M18.75 36V-7.75H6.25V36h12.5zm18.756-12.5V-7.75H25V23.5h12.506zM56.25 11V-7.75h-12.5V11h12.5zM75 23.5V-7.75H62.5V23.5H75zM93.756 11V-7.75H81.25V11h12.506zM86.55 73.5L68.744 61.631 50 73.5 11.55 48.494h-5.3V42.25h7.194L50 65.987 68.744 54.12l19.7 13.125h5.306V73.5h-7.2z"/><glyph glyph-name="chart-pareto-1" unicode="chart-pareto" horiz-adv-x="100" d="M18.75 36V-7.75H6.25V36h12.5zm18.756-12.5V-7.75H25V23.5h12.506zM56.25 11V-7.75h-12.5V11h12.5zM75 23.5V-7.75H62.5V23.5H75zM93.756 11V-7.75H81.25V11h12.506zM86.55 73.5L68.744 61.631 50 73.5 11.55 48.494h-5.3V42.25h7.194L50 65.987 68.744 54.12l19.7 13.125h5.306V73.5h-7.2z"/><glyph glyph-name="chart-polar" unicode="" horiz-adv-x="100" d="M47.85 36L73.862-7.825A57.419 57.419 0 0 0 47.85-14a57.419 57.419 0 0 0-26.013 6.175L47.85 36zm-4.337 0L18.819-6C4.25 2.794-5.606 18.25-6.25 36h49.763zm44.093 0C87.15 23.325 80.15 12.281 69.794 6L52.225 36zM47.85 73.938c6.387 0 12.4-1.532 17.687-4.22L47.85 39.769l-17.688 29.95a38.888 38.888 0 0 0 17.688 4.226zM78.994 86c15.844-9.688 26.569-26.7 27.256-46.231h-54.1zM23.038 73.937l20.65-34.162H2.075c.537 14.438 8.775 27.012 20.963 34.175z"/><glyph glyph-name="chart-polar-1" unicode="chart-polar" horiz-adv-x="100" d="M47.85 36L73.862-7.825A57.419 57.419 0 0 0 47.85-14a57.419 57.419 0 0 0-26.013 6.175L47.85 36zm-4.337 0L18.819-6C4.25 2.794-5.606 18.25-6.25 36h49.763zm44.093 0C87.15 23.325 80.15 12.281 69.794 6L52.225 36zM47.85 73.938c6.387 0 12.4-1.532 17.687-4.22L47.85 39.769l-17.688 29.95a38.888 38.888 0 0 0 17.688 4.226zM78.994 86c15.844-9.688 26.569-26.7 27.256-46.231h-54.1zM23.038 73.937l20.65-34.162H2.075c.537 14.438 8.775 27.012 20.963 34.175z"/><glyph glyph-name="chart-radar" unicode="" horiz-adv-x="100" d="M62.15.813c.881-3.188 3.975-5.55 7.669-5.55.9 0 1.756.143 2.562.4L78.294-14H21.706L30.77.813zM9.194 34.15l18.437-31-9.225-15.081L-6.25 34.15H9.194zm97.056 0L81.594-11.931 75.7-2.288c1.269 1.313 2.044 3.05 2.044 4.957 0 2.112-.95 4.012-2.469 5.362L90.8 34.15h15.45zM50 32.269L64.662 8.288a7.362 7.362 0 0 1-2.512-3.77H33.025L50 32.269zm-27.488 1.875c.882-3.188 3.976-5.55 7.67-5.55 3.687 0 6.787 2.362 7.668 5.556h8.737L29.925 6.906 13.731 34.15zm63.75 0L71.813 9.83a8.394 8.394 0 0 1-3.587.094L53.413 34.15h32.856zM29.933 65.1l16.655-27.244H37.85c-.881 3.194-3.975 5.563-7.669 5.563-3.694 0-6.787-2.369-7.669-5.563h-8.78L29.924 65.1zm51.662 18.831L106.25 37.85H90.8l-18.425 31 9.219 15.081zm-63.188 0l9.219-15.087-18.431-31H-6.25l24.656 46.081zm51.669-18.837L86.269 37.85H53.412l5.913 9.669a8.27 8.27 0 0 1 2.563-.407c4.38 0 7.93 3.313 7.93 7.407 0 2.25-1.08 4.262-2.774 5.625l3.031 4.95zm-3.106 2.387l-3.488-5.706a8.606 8.606 0 0 1-1.593.15c-4.375 0-7.925-3.313-7.925-7.406 0-1.907.78-3.644 2.05-4.956L50 39.73l-16.969 27.75H66.97zM78.294 86L69.23 71.187H30.77L21.7 86h56.594z"/><glyph glyph-name="chart-radar-1" unicode="chart-radar" horiz-adv-x="100" d="M62.15.813c.881-3.188 3.975-5.55 7.669-5.55.9 0 1.756.143 2.562.4L78.294-14H21.706L30.77.813zM9.194 34.15l18.437-31-9.225-15.081L-6.25 34.15H9.194zm97.056 0L81.594-11.931 75.7-2.288c1.269 1.313 2.044 3.05 2.044 4.957 0 2.112-.95 4.012-2.469 5.362L90.8 34.15h15.45zM50 32.269L64.662 8.288a7.362 7.362 0 0 1-2.512-3.77H33.025L50 32.269zm-27.488 1.875c.882-3.188 3.976-5.55 7.67-5.55 3.687 0 6.787 2.362 7.668 5.556h8.737L29.925 6.906 13.731 34.15zm63.75 0L71.813 9.83a8.394 8.394 0 0 1-3.587.094L53.413 34.15h32.856zM29.933 65.1l16.655-27.244H37.85c-.881 3.194-3.975 5.563-7.669 5.563-3.694 0-6.787-2.369-7.669-5.563h-8.78L29.924 65.1zm51.662 18.831L106.25 37.85H90.8l-18.425 31 9.219 15.081zm-63.188 0l9.219-15.087-18.431-31H-6.25l24.656 46.081zm51.669-18.837L86.269 37.85H53.412l5.913 9.669a8.27 8.27 0 0 1 2.563-.407c4.38 0 7.93 3.313 7.93 7.407 0 2.25-1.08 4.262-2.774 5.625l3.031 4.95zm-3.106 2.387l-3.488-5.706a8.606 8.606 0 0 1-1.593.15c-4.375 0-7.925-3.313-7.925-7.406 0-1.907.78-3.644 2.05-4.956L50 39.73l-16.969 27.75H66.97zM78.294 86L69.23 71.187H30.77L21.7 86h56.594z"/><glyph glyph-name="chart" unicode="" horiz-adv-x="100" d="M7.144 78.856V.287H100v-7.143H0v85.712h7.144zM28.562 36V7.431H14.287V36h14.275zM50 71.713V7.438H35.712v64.275H50zM71.431 57.43v-50H57.144v50H71.43zm21.425-14.287V7.43H78.57v35.713h14.287z"/><glyph glyph-name="chart-1" unicode="chart" horiz-adv-x="100" d="M7.144 78.856V.287H100v-7.143H0v85.712h7.144zM28.562 36V7.431H14.287V36h14.275zM50 71.713V7.438H35.712v64.275H50zM71.431 57.43v-50H57.144v50H71.43zm21.425-14.287V7.43H78.57v35.713h14.287z"/><glyph glyph-name="check-2" unicode="" horiz-adv-x="100" d="M50 86c27.588 0 50-22.413 50-50S77.588-14 50-14A49.563 49.563 0 0 0 14.644.644 49.563 49.563 0 0 0 0 36a49.563 49.563 0 0 0 14.644 35.356A49.563 49.563 0 0 0 50 86zm0-14.287a35.375 35.375 0 0 1-25.269-10.444A35.75 35.75 0 0 1 14.287 36a35.375 35.375 0 0 1 10.444-25.269A35.75 35.75 0 0 1 50 .287 35.706 35.706 0 0 1 85.713 36 35.706 35.706 0 0 1 50 71.713zm23.931-23.925L45.356 19.213a3.525 3.525 0 0 0-2.5-1.07c-.175 0-.356 0-.537.088a3.294 3.294 0 0 0-2.588 1.963L32.587 34.48a3.581 3.581 0 0 0 1.607 4.825 3.581 3.581 0 0 0 4.825-1.612l4.912-9.819L69.02 52.962a3.563 3.563 0 0 0 5.087 0c1.25-1.518 1.25-3.837-.175-5.175"/><glyph glyph-name="check-2-1" unicode="check-2" horiz-adv-x="100" d="M50 86c27.588 0 50-22.413 50-50S77.588-14 50-14A49.563 49.563 0 0 0 14.644.644 49.563 49.563 0 0 0 0 36a49.563 49.563 0 0 0 14.644 35.356A49.563 49.563 0 0 0 50 86zm0-14.287a35.375 35.375 0 0 1-25.269-10.444A35.75 35.75 0 0 1 14.287 36a35.375 35.375 0 0 1 10.444-25.269A35.75 35.75 0 0 1 50 .287 35.706 35.706 0 0 1 85.713 36 35.706 35.706 0 0 1 50 71.713zm23.931-23.925L45.356 19.213a3.525 3.525 0 0 0-2.5-1.07c-.175 0-.356 0-.537.088a3.294 3.294 0 0 0-2.588 1.963L32.587 34.48a3.581 3.581 0 0 0 1.607 4.825 3.581 3.581 0 0 0 4.825-1.612l4.912-9.819L69.02 52.962a3.563 3.563 0 0 0 5.087 0c1.25-1.518 1.25-3.837-.175-5.175"/><glyph glyph-name="check-3" unicode="" horiz-adv-x="100" d="M26.5-6.856c-.587 0-1.175 0-1.762.1A11.037 11.037 0 0 0 16.8-.881L1.137 31.006a11.169 11.169 0 0 0 4.8 14.75c5.288 2.688 11.75.5 14.5-4.887l9.013-18.232 52.112 53.007a10.688 10.688 0 0 0 15.288 0 11.137 11.137 0 0 0 0-15.544L34.144-3.669a10.652 10.652 0 0 0-7.638-3.187"/><glyph glyph-name="check-3-1" unicode="check-3" horiz-adv-x="100" d="M26.5-6.856c-.587 0-1.175 0-1.762.1A11.037 11.037 0 0 0 16.8-.881L1.137 31.006a11.169 11.169 0 0 0 4.8 14.75c5.288 2.688 11.75.5 14.5-4.887l9.013-18.232 52.112 53.007a10.688 10.688 0 0 0 15.288 0 11.137 11.137 0 0 0 0-15.544L34.144-3.669a10.652 10.652 0 0 0-7.638-3.187"/><glyph glyph-name="check" unicode="" horiz-adv-x="100" d="M73.931 47.788L45.356 19.213a3.525 3.525 0 0 0-2.5-1.07c-.175 0-.356 0-.537.088a3.294 3.294 0 0 0-2.588 1.963L32.587 34.48a3.581 3.581 0 0 0 1.607 4.825 3.581 3.581 0 0 0 4.825-1.612l4.912-9.819L69.02 52.962a3.563 3.563 0 0 0 5.087 0c1.25-1.518 1.25-3.837-.175-5.175M50 86C22.413 86 0 63.587 0 36s22.413-50 50-50 50 22.413 50 50-22.412 50-50 50"/><glyph glyph-name="check-1" unicode="check" horiz-adv-x="100" d="M73.931 47.788L45.356 19.213a3.525 3.525 0 0 0-2.5-1.07c-.175 0-.356 0-.537.088a3.294 3.294 0 0 0-2.588 1.963L32.587 34.48a3.581 3.581 0 0 0 1.607 4.825 3.581 3.581 0 0 0 4.825-1.612l4.912-9.819L69.02 52.962a3.563 3.563 0 0 0 5.087 0c1.25-1.518 1.25-3.837-.175-5.175M50 86C22.413 86 0 63.587 0 36s22.413-50 50-50 50 22.413 50 50-22.412 50-50 50"/><glyph glyph-name="checkbox-checked-2" unicode="" horiz-adv-x="100" d="M77.525 48.306L45.531 15.762a5.3 5.3 0 0 0-3.919-1.637c-.268 0-.543 0-.912.094a5.256 5.256 0 0 0-4.006 3l-8.025 16.325a5.581 5.581 0 0 0 2.462 7.475 5.481 5.481 0 0 0 7.382-2.463l4.562-9.293L69.687 56.33a5.394 5.394 0 0 0 7.75 0 5.638 5.638 0 0 0 .088-8.019M88.281 79.75H11.72a5.487 5.487 0 0 1-5.469-5.469V-2.28c0-3.006 2.463-5.469 5.469-5.469H88.28a5.487 5.487 0 0 1 5.469 5.469V74.28a5.487 5.487 0 0 1-5.469 5.469"/><glyph glyph-name="checkbox-checked-2-1" unicode="checkbox-checked-2" horiz-adv-x="100" d="M77.525 48.306L45.531 15.762a5.3 5.3 0 0 0-3.919-1.637c-.268 0-.543 0-.912.094a5.256 5.256 0 0 0-4.006 3l-8.025 16.325a5.581 5.581 0 0 0 2.462 7.475 5.481 5.481 0 0 0 7.382-2.463l4.562-9.293L69.687 56.33a5.394 5.394 0 0 0 7.75 0 5.638 5.638 0 0 0 .088-8.019M88.281 79.75H11.72a5.487 5.487 0 0 1-5.469-5.469V-2.28c0-3.006 2.463-5.469 5.469-5.469H88.28a5.487 5.487 0 0 1 5.469 5.469V74.28a5.487 5.487 0 0 1-5.469 5.469"/><glyph glyph-name="checkbox-checked" unicode="" horiz-adv-x="100" d="M46.688 30.938L40.412 43.5a4.556 4.556 0 1 1-8.156-4.075l9.119-18.231a4.563 4.563 0 0 1 7.3-1.188L93.75 65.175v10.938a3.656 3.656 0 0 1-3.644 3.637H9.894a3.656 3.656 0 0 1-3.644-3.644V-4.106c0-2 1.638-3.644 3.644-3.644h80.212c2 0 3.644 1.638 3.644 3.644V50.58L82.812 39.644V3.188H17.189v65.624h65.624v-1.756L46.688 30.931z"/><glyph glyph-name="checkbox-checked-1" unicode="checkbox-checked" horiz-adv-x="100" d="M46.688 30.938L40.412 43.5a4.556 4.556 0 1 1-8.156-4.075l9.119-18.231a4.563 4.563 0 0 1 7.3-1.188L93.75 65.175v10.938a3.656 3.656 0 0 1-3.644 3.637H9.894a3.656 3.656 0 0 1-3.644-3.644V-4.106c0-2 1.638-3.644 3.644-3.644h80.212c2 0 3.644 1.638 3.644 3.644V50.58L82.812 39.644V3.188H17.189v65.624h65.624v-1.756L46.688 30.931z"/><glyph glyph-name="checkbox-intermediate" unicode="" horiz-adv-x="100" d="M88.281 79.75c3.006 0 5.469-2.463 5.469-5.469V-2.28a5.487 5.487 0 0 0-5.469-5.469H11.72A5.487 5.487 0 0 0 6.25-2.281V74.28c0 3.006 2.463 5.469 5.469 5.469zm-11.356-38.7h-53.85a5.05 5.05 0 0 1 0-10.1h53.85a5.05 5.05 0 1 1 0 10.1z"/><glyph glyph-name="checkbox-intermediate-1" unicode="checkbox-intermediate" horiz-adv-x="100" d="M88.281 79.75c3.006 0 5.469-2.463 5.469-5.469V-2.28a5.487 5.487 0 0 0-5.469-5.469H11.72A5.487 5.487 0 0 0 6.25-2.281V74.28c0 3.006 2.463 5.469 5.469 5.469zm-11.356-38.7h-53.85a5.05 5.05 0 0 1 0-10.1h53.85a5.05 5.05 0 1 1 0 10.1z"/><glyph glyph-name="checkbox-unchecked" unicode="" horiz-adv-x="100" d="M87.5 79.75a6.25 6.25 0 0 0 6.25-6.25v-75a6.25 6.25 0 0 0-6.25-6.25h-75A6.25 6.25 0 0 0 6.25-1.5v75a6.25 6.25 0 0 0 6.25 6.25h75zm-6.25-12.5h-62.5V4.75h62.5v62.5z"/><glyph glyph-name="checkbox-unchecked-1" unicode="checkbox-unchecked" horiz-adv-x="100" d="M87.5 79.75a6.25 6.25 0 0 0 6.25-6.25v-75a6.25 6.25 0 0 0-6.25-6.25h-75A6.25 6.25 0 0 0 6.25-1.5v75a6.25 6.25 0 0 0 6.25 6.25h75zm-6.25-12.5h-62.5V4.75h62.5v62.5z"/><glyph glyph-name="chrono" unicode="" horiz-adv-x="100" d="M69.4 21.169a3.3 3.3 0 0 0-2.981-1.838 3.237 3.237 0 0 0-1.5.338l-16.575 10a3.319 3.319 0 0 0-1.825 3V59.33c0 1.838 1.494 3.338 3.312 3.338 1.825 0 3.319-1.5 3.319-3.338V34.75l14.756-9.081a3.35 3.35 0 0 0 1.5-4.5M86.975 61.5l4.894 4.919a1.869 1.869 0 0 1 0 2.662l-7.875 8a1.844 1.844 0 0 1-2.656 0L76.28 71.92a45.006 45.006 0 0 1-18.987 7.75v4.412c0 1-.825 1.919-1.819 1.919H44.362a1.863 1.863 0 0 1-1.825-1.919V79.67a46.106 46.106 0 0 1-18.987-7.75l-5.056 5.162a1.844 1.844 0 0 1-2.65 0l-7.875-8a1.869 1.869 0 0 1 0-2.662l4.887-4.919A47.688 47.688 0 0 1 3.57 33.169C3.569 7.08 24.38-14 50-14S96.431 7.081 96.431 33.169A48.969 48.969 0 0 1 86.975 61.5"/><glyph glyph-name="chrono-1" unicode="chrono" horiz-adv-x="100" d="M69.4 21.169a3.3 3.3 0 0 0-2.981-1.838 3.237 3.237 0 0 0-1.5.338l-16.575 10a3.319 3.319 0 0 0-1.825 3V59.33c0 1.838 1.494 3.338 3.312 3.338 1.825 0 3.319-1.5 3.319-3.338V34.75l14.756-9.081a3.35 3.35 0 0 0 1.5-4.5M86.975 61.5l4.894 4.919a1.869 1.869 0 0 1 0 2.662l-7.875 8a1.844 1.844 0 0 1-2.656 0L76.28 71.92a45.006 45.006 0 0 1-18.987 7.75v4.412c0 1-.825 1.919-1.819 1.919H44.362a1.863 1.863 0 0 1-1.825-1.919V79.67a46.106 46.106 0 0 1-18.987-7.75l-5.056 5.162a1.844 1.844 0 0 1-2.65 0l-7.875-8a1.869 1.869 0 0 1 0-2.662l4.887-4.919A47.688 47.688 0 0 1 3.57 33.169C3.569 7.08 24.38-14 50-14S96.431 7.081 96.431 33.169A48.969 48.969 0 0 1 86.975 61.5"/><glyph glyph-name="circle" unicode="" horiz-adv-x="100" d="M0 36a50 50 0 0 1 100 0A50 50 0 0 1 0 36"/><glyph glyph-name="circle-1" unicode="circle" horiz-adv-x="100" d="M0 36a50 50 0 0 1 100 0A50 50 0 0 1 0 36"/><glyph glyph-name="clarabridge" unicode="" horiz-adv-x="100" d="M97.331 38.25C99.081 34.9 100 31.369 100 27.837c0-9.468-6.344-18.506-17.031-24.018l-.913-.431L87.981-14 69.87-.656l-.5-.088a56.331 56.331 0 0 0-9.35-.775c-16.532 0-31.138 7.319-37.231 18.425.918-.087 1.837-.087 2.75-.087 8.35 0 16.2 2.75 21.456 7.575 3.006-.944 6.181-1.55 9.437-1.894L66.862 8.469 69.7 22.762c11.85 1.72 22.037 7.488 27.625 15.494zm-74.875 18a23.125 23.125 0 0 1-.418-4.131c0-2.757.5-5.6 1.5-8.269-3.838-4.906-5.844-10.413-5.844-16.1 0-2.75.5-5.419 1.337-8h-.25L5.175 11.731l4.087 11.713-.75.512C3.087 27.5 0 32.487 0 37.737c0 9.388 9.769 17.307 22.456 18.513zm37.644.944c15.356 0 29.469-6.544 36.144-16.7-5.175-8.094-15.356-13.863-27.463-15.5l-.837-.081-2.169-10.85-8.013 10.675-.5.087A51.913 51.913 0 0 0 49 26.288c3 3.443 4.587 7.406 4.587 11.537 0 6.544-3.918 12.569-10.6 16.531A51.425 51.425 0 0 0 60.1 57.194zM24.706 41.525c3.594-7.144 10.688-12.912 19.869-16.269-4.925-3.962-11.688-6.112-18.95-6.112-1.25 0-2.587.087-3.925.256a23 23 0 0 0-1.669 8.438c0 4.825 1.588 9.468 4.675 13.687zM39.981 53.15c7.013-3.531 11.188-9.212 11.188-15.413.081-3.875-1.5-7.575-4.675-10.762-9.6 3.188-16.944 9.125-20.282 16.444 3.5 3.962 8.182 7.319 13.77 9.731zm22.038 26.6c20.787 0 37.731-12.394 37.731-27.631.081-3.275-.75-6.375-2.25-9.475-7.35 10.25-21.706 16.787-37.4 16.787a54.875 54.875 0 0 1-19.95-3.7 35.212 35.212 0 0 1-14.525 3.1h-.169c4.175 12.225 19.2 20.919 36.563 20.919zM25.706 56.419c4.013 0 7.938-.688 11.525-1.981-4.675-2.238-8.769-5.163-11.856-8.52a20.056 20.056 0 0 0-1 6.2c0 1.376.169 2.838.5 4.3h.837z"/></font>
</defs>
</svg>
